<svg xmlns="http://www.w3.org/2000/svg" xmlns:xlink="http://www.w3.org/1999/xlink" xmlns:lucid="lucid" width="1140" height="652.46"><g transform="translate(201 1.5)" lucid:page-tab-id="0_0"><path d="M160 26a6 6 0 0 1 6-6h128a6 6 0 0 1 6 6v88a6 6 0 0 1-6 6H166a6 6 0 0 1-6-6z" stroke="#282c33" stroke-width="3" fill="#fff"/><use xlink:href="#a" transform="matrix(1,0,0,1,172,32.00000000000003) translate(17.290123456790127 41.52777777777778)"/><path d="M140 46a6 6 0 0 1 6-6h130.5a6 6 0 0 1 6 6v88a6 6 0 0 1-6 6H146a6 6 0 0 1-6-6z" stroke="#282c33" stroke-width="3" fill="#fff"/><use xlink:href="#a" transform="matrix(1,0,0,1,152,52) translate(18.790123456790127 41.52777777777778)"/><path d="M117.5 66a6 6 0 0 1 6-6H254a6 6 0 0 1 6 6v87.7a6 6 0 0 1-6 6H123.5a6 6 0 0 1-6-6z" stroke="#282c33" stroke-width="3" fill="#fff"/><use xlink:href="#b" transform="matrix(1,0,0,1,129.5,72) translate(-4.481481481481488 29.111111111111114)"/><use xlink:href="#c" transform="matrix(1,0,0,1,129.5,72) translate(-0.9012345679012483 55.77777777777778)"/><path d="M123.56 225.8a7.8 7.8 0 0 1 7.55-5.8H264a4.6 4.6 0 0 1 4.45 5.8l-12 45.07a7.8 7.8 0 0 1-7.56 5.8H116a4.6 4.6 0 0 1-4.45-5.8z" stroke="#282c33" stroke-width="3" fill="#fff"/><use xlink:href="#d" transform="matrix(1,0,0,1,115,225) translate(7.875370370370371 26.59027777777778)"/><path d="M-26.43 225.8a7.8 7.8 0 0 1 7.54-5.8H114a4.6 4.6 0 0 1 4.45 5.8l-12.02 45.07a7.8 7.8 0 0 1-7.54 5.8H-34a4.6 4.6 0 0 1-4.45-5.8z" stroke="#282c33" stroke-width="3" fill="#fff"/><use xlink:href="#e" transform="matrix(1,0,0,1,-35,225) translate(8.67783950617284 26.59027777777778)"/><path d="M273.56 225.8a7.8 7.8 0 0 1 7.55-5.8H474a4.6 4.6 0 0 1 4.45 5.8l-12 45.07a7.8 7.8 0 0 1-7.56 5.8H266a4.6 4.6 0 0 1-4.45-5.8z" stroke="#282c33" stroke-width="3" fill="#fff"/><use xlink:href="#f" transform="matrix(1,0,0,1,265,225) translate(27.597592592592584 17.77777777777778)"/><use xlink:href="#g" transform="matrix(1,0,0,1,265,225) translate(146.7333950617284 17.77777777777778)"/><use xlink:href="#h" transform="matrix(1,0,0,1,265,225) translate(6.325987654320992 44.44444444444444)"/><use xlink:href="#i" transform="matrix(1,0,0,1,265,225) translate(73.3012962962963 44.44444444444444)"/><use xlink:href="#j" transform="matrix(1,0,0,1,265,225) translate(99.1654938271605 44.44444444444444)"/><use xlink:href="#k" transform="matrix(1,0,0,1,265,225) translate(125.09141975308643 44.44444444444444)"/><path d="M-33.75 342.96a6 6 0 0 1 6-6h153a6 6 0 0 1 6 6v66.34a6 6 0 0 1-6 6h-153a6 6 0 0 1-6-6z" stroke="#282c33" stroke-width="3" fill="#fff"/><use xlink:href="#l" transform="matrix(1,0,0,1,-21.75,348.96390658174096) translate(16.302469135802475 14.222222222222221)"/><use xlink:href="#m" transform="matrix(1,0,0,1,-21.75,348.96390658174096) translate(20.20370370370371 35.55555555555556)"/><use xlink:href="#n" transform="matrix(1,0,0,1,-21.75,348.96390658174096) translate(8.450617283950635 56.888888888888886)"/><use xlink:href="#o" transform="matrix(1,0,0,1,-21.75,348.96390658174096) translate(83.36419753086419 56.888888888888886)"/><path d="M188.75 162.7v21.15a6 6 0 0 1-6 6H46a6 6 0 0 0-6 6v2.03" stroke="#5e5e5e" stroke-width="3" fill="none"/><path d="M190.22 162.74h-2.94v-1.54h2.94z" stroke="#5e5e5e" stroke-width=".05" fill="#5e5e5e"/><path d="M40 213.65l-4.63-14.27h9.27z" stroke="#5e5e5e" stroke-width="3" fill="#5e5e5e"/><path d="M188.75 162.7v21.15a6 6 0 0 0 6 6H364a6 6 0 0 1 6 6v2.03" stroke="#5e5e5e" stroke-width="3" fill="none"/><path d="M190.22 162.74h-2.94v-1.54h2.94z" stroke="#5e5e5e" stroke-width=".05" fill="#5e5e5e"/><path d="M370 213.65l-4.63-14.27h9.26z" stroke="#5e5e5e" stroke-width="3" fill="#5e5e5e"/><path d="M-20 483.63a6 6 0 0 1 6-6h125.5a6 6 0 0 1 6 6v66.33a6 6 0 0 1-6 6H-14a6 6 0 0 1-6-6z" stroke="#282c33" stroke-width="3" fill="#fff"/><use xlink:href="#p" transform="matrix(1,0,0,1,-8,489.6305732484077) translate(31.691358024691358 18.611111111111114)"/><use xlink:href="#q" transform="matrix(1,0,0,1,-8,489.6305732484077) translate(-3.4012345679012483 45.277777777777786)"/><path d="M48.75 418.3v37.2" stroke="#5e5e5e" stroke-width="3" fill="none"/><path d="M50.23 418.34h-2.95v-1.54h2.95z" stroke="#5e5e5e" stroke-width=".05" fill="#5e5e5e"/><path d="M48.75 471.28L44.12 457h9.27z" stroke="#5e5e5e" stroke-width="3" fill="#5e5e5e"/><path d="M122.5 486a6 6 0 0 1 6-6H254a6 6 0 0 1 6 6v63.96a6 6 0 0 1-6 6H128.5a6 6 0 0 1-6-6z" stroke="#282c33" stroke-width="3" fill="#fff"/><use xlink:href="#r" transform="matrix(1,0,0,1,134.50000000001046,492) translate(39.098765432098766 17.77777777777778)"/><use xlink:href="#q" transform="matrix(1,0,0,1,134.50000000001046,492) translate(-3.4012345679012483 44.44444444444444)"/><path d="M-160 486a6 6 0 0 1 6-6h123a6 6 0 0 1 6 6v63.96a6 6 0 0 1-6 6h-123a6 6 0 0 1-6-6z" stroke="#282c33" stroke-width="3" fill="#fff"/><use xlink:href="#s" transform="matrix(1,0,0,1,-148,492) translate(29.01851851851852 17.77777777777778)"/><use xlink:href="#q" transform="matrix(1,0,0,1,-148,492) translate(-4.901234567901248 44.44444444444444)"/><path d="M-36.75 376.13H-86.5a6 6 0 0 0-6 6v75.75" stroke="#5e5e5e" stroke-width="3" fill="none"/><path d="M-35.25 377.6h-1.54v-2.94h1.55z" stroke="#5e5e5e" stroke-width=".05" fill="#5e5e5e"/><path d="M-92.5 473.65l-4.64-14.27h9.28z" stroke="#5e5e5e" stroke-width="3" fill="#5e5e5e"/><path d="M270 486a6 6 0 0 1 6-6h138a6 6 0 0 1 6 6v63.96a6 6 0 0 1-6 6H276a6 6 0 0 1-6-6z" stroke="#282c33" stroke-width="3" fill="#fff"/><use xlink:href="#t" transform="matrix(1,0,0,1,282,492) translate(45.098765432098766 21.02777777777778)"/><use xlink:href="#q" transform="matrix(1,0,0,1,282,492) translate(2.5987654320987517 47.69444444444444)"/><path d="M144.62 279.67v160.8a6 6 0 0 1-6 6H54.75a6 6 0 0 0-6 6v3.04" stroke="#5e5e5e" stroke-width="3" fill="none"/><path d="M146.1 279.7h-2.96v-1.53h2.95z" stroke="#5e5e5e" stroke-width=".05" fill="#5e5e5e"/><path d="M48.75 471.28L44.12 457h9.27z" stroke="#5e5e5e" stroke-width="3" fill="#5e5e5e"/><path d="M537.5 26a6 6 0 0 1 6-6h148a6 6 0 0 1 6 6v88a6 6 0 0 1-6 6h-148a6 6 0 0 1-6-6z" stroke="#282c33" stroke-width="3" fill="#fff"/><use xlink:href="#a" transform="matrix(1,0,0,1,549.4999999999895,32) translate(27.290123456790127 41.52777777777778)"/><path d="M522.5 46a6 6 0 0 1 6-6h143a6 6 0 0 1 6 6v88a6 6 0 0 1-6 6h-143a6 6 0 0 1-6-6z" stroke="#282c33" stroke-width="3" fill="#fff"/><use xlink:href="#a" transform="matrix(1,0,0,1,534.5000000000105,52.00000000000003) translate(24.790123456790127 41.52777777777778)"/><path d="M500 66a6 6 0 0 1 6-6h145.5a6 6 0 0 1 6 6v87.7a6 6 0 0 1-6 6H506a6 6 0 0 1-6-6z" stroke="#282c33" stroke-width="3" fill="#fff"/><use xlink:href="#u" transform="matrix(1,0,0,1,512,72) translate(-6.981481481481481 29.111111111111114)"/><use xlink:href="#v" transform="matrix(1,0,0,1,512,72) translate(6.598765432098752 55.77777777777778)"/><path d="M497.5 484.63a6 6 0 0 1 6-6h148a6 6 0 0 1 6 6v65.33a6 6 0 0 1-6 6h-148a6 6 0 0 1-6-6z" stroke="#282c33" stroke-width="3" fill="#fff"/><use xlink:href="#w" transform="matrix(1,0,0,1,509.49999999998954,490.6305732484076) translate(29.790123456790127 21.15277777777778)"/><use xlink:href="#x" transform="matrix(1,0,0,1,509.49999999998954,490.6305732484076) translate(7.598765432098752 47.81944444444444)"/><path d="M500 222.67a6 6 0 0 1 6-6h145.5a6 6 0 0 1 6 6V274a6 6 0 0 1-6 6H506a6 6 0 0 1-6-6z" stroke="#282c33" stroke-width="3" fill="#fff"/><use xlink:href="#y" transform="matrix(1,0,0,1,512,228.66666666666663) translate(9.160493827160494 17.77777777777778)"/><use xlink:href="#z" transform="matrix(1,0,0,1,512,228.66666666666663) translate(40.51851851851852 44.44444444444444)"/><path d="M578.75 162.7v31.85" stroke="#5e5e5e" stroke-width="3" fill="none"/><path d="M580.23 162.74h-2.96v-1.54h2.96z" stroke="#5e5e5e" stroke-width=".05" fill="#5e5e5e"/><path d="M578.75 210.3l-4.63-14.25h9.26z" stroke="#5e5e5e" stroke-width="3" fill="#5e5e5e"/><path d="M757.5 26a6 6 0 0 1 6-6h148a6 6 0 0 1 6 6v88a6 6 0 0 1-6 6h-148a6 6 0 0 1-6-6z" stroke="#282c33" stroke-width="3" fill="#fff"/><use xlink:href="#a" transform="matrix(1,0,0,1,769.4999999999895,32) translate(27.290123456790127 41.52777777777778)"/><path d="M740 46a6 6 0 0 1 6-6h145.5a6 6 0 0 1 6 6v88a6 6 0 0 1-6 6H746a6 6 0 0 1-6-6z" stroke="#282c33" stroke-width="3" fill="#fff"/><use xlink:href="#a" transform="matrix(1,0,0,1,752,52) translate(26.290123456790127 41.84027777777778)"/><path d="M717.5 66a6 6 0 0 1 6-6h148a6 6 0 0 1 6 6v87.7a6 6 0 0 1-6 6h-148a6 6 0 0 1-6-6z" stroke="#282c33" stroke-width="3" fill="#fff"/><use xlink:href="#A" transform="matrix(1,0,0,1,729.4999999999895,72) translate(-5.981481481481481 17.77777777777778)"/><use xlink:href="#B" transform="matrix(1,0,0,1,729.4999999999895,72) translate(7.598765432098752 44.44444444444444)"/><use xlink:href="#C" transform="matrix(1,0,0,1,729.4999999999895,72) translate(24.296296296296298 71.11111111111111)"/><path d="M797.5 162.7v31.85" stroke="#5e5e5e" stroke-width="3" fill="none"/><path d="M798.98 162.74H796v-1.54H799z" stroke="#5e5e5e" stroke-width=".05" fill="#5e5e5e"/><path d="M797.5 210.3l-4.63-14.25h9.26z" stroke="#5e5e5e" stroke-width="3" fill="#5e5e5e"/><path d="M190 279.67v98.65l-.02.02v79.54" stroke="#5e5e5e" stroke-width="3" fill="none"/><path d="M191.47 279.7h-2.94v-1.53h2.94z" stroke="#5e5e5e" stroke-width=".05" fill="#5e5e5e"/><path d="M189.98 473.65l-4.63-14.27h9.27z" stroke="#5e5e5e" stroke-width="3" fill="#5e5e5e"/><path d="M370 279.67v98.5a.16.16 0 0 0 .16.16.16.16 0 0 1 .16.16v79.38" stroke="#5e5e5e" stroke-width="3" fill="none"/><path d="M371.48 279.7h-2.96v-1.53h2.96z" stroke="#5e5e5e" stroke-width=".05" fill="#5e5e5e"/><path d="M370.32 473.65l-4.63-14.27h9.26z" stroke="#5e5e5e" stroke-width="3" fill="#5e5e5e"/><path d="M677.5 222.67a6 6 0 0 1 6-6h228a6 6 0 0 1 6 6V274a6 6 0 0 1-6 6h-228a6 6 0 0 1-6-6z" stroke="#282c33" stroke-width="3" fill="#fff"/><use xlink:href="#D" transform="matrix(1,0,0,1,689.4999999999895,228.66666666666663) translate(54.38888888888888 17.77777777777778)"/><use xlink:href="#E" transform="matrix(1,0,0,1,689.4999999999895,228.66666666666663) translate(16.48765432098766 44.44444444444444)"/><use xlink:href="#F" transform="matrix(1,0,0,1,689.4999999999895,228.66666666666663) translate(127.41358024691358 44.44444444444444)"/><path d="M578.75 283v96.3l.02.02v77.2" stroke="#5e5e5e" stroke-width="3" fill="none"/><path d="M580.23 283.04h-2.96v-1.54h2.96z" stroke="#5e5e5e" stroke-width=".05" fill="#5e5e5e"/><path d="M578.77 472.28L574.13 458h9.27z" stroke="#5e5e5e" stroke-width="3" fill="#5e5e5e"/><path d="M797.5 283v90.31a6 6 0 0 1-6 6H584.75a6 6 0 0 0-6 6V455a.63.63 0 0 1-.63.63.63.63 0 0 0-.62.63v.25" stroke="#5e5e5e" stroke-width="3" fill="none"/><path d="M798.98 283.04H796v-1.54H799z" stroke="#5e5e5e" stroke-width=".05" fill="#5e5e5e"/><path d="M577.5 472.28L572.87 458h9.26z" stroke="#5e5e5e" stroke-width="3" fill="#5e5e5e"/><path d="M40 279.17v37.8" stroke="#5e5e5e" stroke-width="2" fill="none"/><path d="M40.98 279.2h-1.95v-1.03h1.95z" stroke="#5e5e5e" stroke-width=".05" fill="#5e5e5e"/><path d="M40 332.23l-4.63-14.27h9.27z" stroke="#5e5e5e" stroke-width="2" fill="#5e5e5e"/><path d="M-180 561.96a6 6 0 0 1 6-6h160.5a6 6 0 0 1 6 6v27.34a6 6 0 0 1-6 6H-174a6 6 0 0 1-6-6z" stroke="#000" stroke-opacity="0" stroke-width="2" fill="#fff" fill-opacity="0"/><g><use xlink:href="#G" transform="matrix(1,0,0,1,-175,560.963906581741) translate(19.722222222222243 17.97222222222222)"/><use xlink:href="#H" transform="matrix(1,0,0,1,-175,560.963906581741) translate(73.30246913580248 17.97222222222222)"/></g><path d="M105 561.96a6 6 0 0 1 6-6h160.5a6 6 0 0 1 6 6v27.34a6 6 0 0 1-6 6H111a6 6 0 0 1-6-6z" stroke="#000" stroke-opacity="0" stroke-width="2" fill="#fff" fill-opacity="0"/><g><use xlink:href="#G" transform="matrix(1,0,0,1,110.00000000000261,560.963906581741) translate(25.15432098765433 17.97222222222222)"/><use xlink:href="#I" transform="matrix(1,0,0,1,110.00000000000261,560.963906581741) translate(78.73456790123456 17.97222222222222)"/></g><path d="M-37.5 555.3a6 6 0 0 1 6-6h148a6 6 0 0 1 6 6V614a6 6 0 0 1-6 6h-148a6 6 0 0 1-6-6z" stroke="#000" stroke-opacity="0" stroke-width="2" fill="#fff" fill-opacity="0"/><g><use xlink:href="#G" transform="matrix(1,0,0,1,-32.500000000002615,554.2972399150742) translate(13.746913580246932 21.84722222222222)"/><use xlink:href="#J" transform="matrix(1,0,0,1,-32.500000000002615,554.2972399150742) translate(67.32716049382717 21.84722222222222)"/><use xlink:href="#K" transform="matrix(1,0,0,1,-32.500000000002615,554.2972399150742) translate(131.37654320987653 21.84722222222222)"/><use xlink:href="#L" transform="matrix(1,0,0,1,-32.500000000002615,554.2972399150742) translate(13.722222222222243 43.18055555555556)"/><use xlink:href="#M" transform="matrix(1,0,0,1,-32.500000000002615,554.2972399150742) translate(67.30246913580248 43.18055555555556)"/></g><path d="M260 561.96a6 6 0 0 1 6-6h160.5a6 6 0 0 1 6 6v27.34a6 6 0 0 1-6 6H266a6 6 0 0 1-6-6z" stroke="#000" stroke-opacity="0" stroke-width="2" fill="#fff" fill-opacity="0"/><g><use xlink:href="#N" transform="matrix(1,0,0,1,265,560.963906581741) translate(25.820987654320994 17.97222222222222)"/><use xlink:href="#O" transform="matrix(1,0,0,1,265,560.963906581741) translate(63.302469135802475 17.97222222222222)"/></g><path d="M497.5 561.96a6 6 0 0 1 6-6H664a6 6 0 0 1 6 6v62a6 6 0 0 1-6 6H503.5a6 6 0 0 1-6-6z" stroke="#000" stroke-opacity="0" stroke-width="2" fill="#fff" fill-opacity="0"/><g><use xlink:href="#P" transform="matrix(1,0,0,1,502.49999999998954,560.963906581741) translate(36.6851851851852 18.22222222222222)"/><use xlink:href="#Q" transform="matrix(1,0,0,1,502.49999999998954,560.963906581741) translate(30.265432098765437 39.55555555555556)"/><use xlink:href="#R" transform="matrix(1,0,0,1,502.49999999998954,560.963906581741) translate(50.95679012345679 60.888888888888886)"/></g><path d="M188.75 162.2V200" stroke="#5e5e5e" stroke-width="2" fill="none"/><path d="M189.72 162.23h-1.94v-1.03h1.94z" stroke="#5e5e5e" stroke-width=".05" fill="#5e5e5e"/><path d="M188.75 215.26L184.12 201h9.26z" stroke="#5e5e5e" stroke-width="2" fill="#5e5e5e"/><defs><path fill="#282c33" d="M30-248c87 1 191-15 191 75 0 78-77 80-158 76V0H30v-248zm33 125c57 0 124 11 124-50 0-59-68-47-124-48v98" id="S"/><path fill="#282c33" d="M114-163C36-179 61-72 57 0H25l-1-190h30c1 12-1 29 2 39 6-27 23-49 58-41v29" id="T"/><path fill="#282c33" d="M100-194c62-1 85 37 85 99 1 63-27 99-86 99S16-35 15-95c0-66 28-99 85-99zM99-20c44 1 53-31 53-75 0-43-8-75-51-75s-53 32-53 75 10 74 51 75" id="U"/><path fill="#282c33" d="M96-169c-40 0-48 33-48 73s9 75 48 75c24 0 41-14 43-38l32 2c-6 37-31 61-74 61-59 0-76-41-82-99-10-93 101-131 147-64 4 7 5 14 7 22l-32 3c-4-21-16-35-41-35" id="V"/><path fill="#282c33" d="M100-194c63 0 86 42 84 106H49c0 40 14 67 53 68 26 1 43-12 49-29l28 8c-11 28-37 45-77 45C44 4 14-33 15-96c1-61 26-98 85-98zm52 81c6-60-76-77-97-28-3 7-6 17-6 28h103" id="W"/><path fill="#282c33" d="M135-143c-3-34-86-38-87 0 15 53 115 12 119 90S17 21 10-45l28-5c4 36 97 45 98 0-10-56-113-15-118-90-4-57 82-63 122-42 12 7 21 19 24 35" id="X"/><g id="a"><use transform="matrix(0.06172839506172839,0,0,0.06172839506172839,0,0)" xlink:href="#S"/><use transform="matrix(0.06172839506172839,0,0,0.06172839506172839,14.814814814814813,0)" xlink:href="#T"/><use transform="matrix(0.06172839506172839,0,0,0.06172839506172839,22.160493827160494,0)" xlink:href="#U"/><use transform="matrix(0.06172839506172839,0,0,0.06172839506172839,34.50617283950617,0)" xlink:href="#V"/><use transform="matrix(0.06172839506172839,0,0,0.06172839506172839,45.61728395061728,0)" xlink:href="#W"/><use transform="matrix(0.06172839506172839,0,0,0.06172839506172839,57.962962962962955,0)" xlink:href="#X"/><use transform="matrix(0.06172839506172839,0,0,0.06172839506172839,69.07407407407406,0)" xlink:href="#U"/></g><path fill="#1071e5" d="M24 0v-248h195v40H76v63h132v40H76v65h150V0H24" id="Y"/><path fill="#1071e5" d="M240-174c0 40-23 61-54 70L253 0h-59l-57-94H76V0H24v-248c93 4 217-23 216 74zM76-134c48-2 112 12 112-38 0-48-66-32-112-35v73" id="Z"/><path fill="#1071e5" d="M199 0l-22-63H83L61 0H9l90-248h61L250 0h-51zm-33-102l-36-108c-10 38-24 72-36 108h72" id="aa"/><path fill="#1071e5" d="M139-81c0-46-55-55-73-27H18l9-140h149v37H72l-4 63c44-38 133-4 122 66C201 21 21 35 11-62l49-4c5 18 15 30 39 30 26 0 40-18 40-45" id="ab"/><path fill="#1071e5" d="M14-72v-43h91v43H14" id="ac"/><path fill="#1071e5" d="M24 0v-248h52v208h133V0H24" id="ad"/><path fill="#1071e5" d="M175 0L67-191c6 58 2 128 3 191H24v-248h59L193-55c-6-58-2-129-3-193h46V0h-61" id="ae"/><path fill="#1071e5" d="M24-248c120-7 223 5 221 122C244-46 201 0 124 0H24v-248zM76-40c74 7 117-18 117-86 0-67-45-88-117-82v168" id="af"/><g id="b"><use transform="matrix(0.06172839506172839,0,0,0.06172839506172839,0,0)" xlink:href="#Y"/><use transform="matrix(0.06172839506172839,0,0,0.06172839506172839,14.814814814814813,0)" xlink:href="#Z"/><use transform="matrix(0.06172839506172839,0,0,0.06172839506172839,30.80246913580247,0)" xlink:href="#aa"/><use transform="matrix(0.06172839506172839,0,0,0.06172839506172839,46.79012345679012,0)" xlink:href="#ab"/><use transform="matrix(0.06172839506172839,0,0,0.06172839506172839,59.1358024691358,0)" xlink:href="#ac"/><use transform="matrix(0.06172839506172839,0,0,0.06172839506172839,66.48148148148148,0)" xlink:href="#ad"/><use transform="matrix(0.06172839506172839,0,0,0.06172839506172839,80,0)" xlink:href="#aa"/><use transform="matrix(0.06172839506172839,0,0,0.06172839506172839,95.98765432098766,0)" xlink:href="#ae"/><use transform="matrix(0.06172839506172839,0,0,0.06172839506172839,111.97530864197532,0)" xlink:href="#af"/></g><path fill="#1071e5" d="M67-93c0 74 22 123 53 168H70C40 30 18-18 18-93s22-123 52-168h50c-32 44-53 94-53 168" id="ag"/><path fill="#1071e5" d="M23 0v-37h61v-169l-59 37v-38l62-41h46v211h57V0H23" id="ah"/><path fill="#1071e5" d="M99-251c69 0 84 53 88 123 5 99-61 162-144 118-15-8-21-25-26-45l46-6c4 31 50 33 63 7 7-15 12-36 12-60-9 18-29 28-54 28-48 0-72-32-72-82 0-55 31-83 87-83zm-1 128c24 0 37-16 37-39 0-27-10-51-37-51-25 0-35 19-35 45 0 25 10 45 35 45" id="ai"/><path fill="#1071e5" d="M138-131c27 9 52 24 51 61 0 53-36 74-89 74S11-19 11-69c0-35 22-54 51-61-78-25-46-121 38-121 51 0 83 19 83 66 0 30-18 49-45 54zm-38-16c24 0 32-13 32-36 1-23-11-34-32-34-22 0-33 12-32 34 0 22 9 36 32 36zm1 116c27 0 37-17 37-43 0-25-13-39-39-39-24 0-37 15-37 40 0 27 11 42 39 42" id="aj"/><path fill="#1071e5" d="M182-182c0 78-84 86-111 141h115V0H12c-6-101 99-100 120-180 1-22-12-31-33-32-23 0-32 14-35 34l-49-3c5-45 32-70 84-70 51 0 83 22 83 69" id="ak"/><path fill="#1071e5" d="M101-251c68 0 84 54 84 127C185-50 166 4 99 4S15-52 14-124c-1-75 17-127 87-127zm-1 216c37-5 36-46 36-89s4-89-36-89c-39 0-36 45-36 89 0 43-3 85 36 89" id="al"/><path fill="#1071e5" d="M128-127c34 4 56 21 59 58 7 91-148 94-172 28-4-9-6-17-7-26l51-5c1 24 16 35 40 36 23 0 39-12 38-36-1-31-31-36-65-34v-40c32 2 59-3 59-33 0-20-13-33-34-33s-33 13-35 32l-50-3c6-44 37-68 86-68 50 0 83 20 83 66 0 35-22 52-53 58" id="am"/><path fill="#1071e5" d="M102-93c0 74-22 123-52 168H0C30 29 54-18 53-93c0-74-22-123-53-168h50c30 45 52 94 52 168" id="an"/><g id="c"><use transform="matrix(0.06172839506172839,0,0,0.06172839506172839,0,0)" xlink:href="#ag"/><use transform="matrix(0.06172839506172839,0,0,0.06172839506172839,7.345679012345679,0)" xlink:href="#ah"/><use transform="matrix(0.06172839506172839,0,0,0.06172839506172839,19.691358024691358,0)" xlink:href="#ai"/><use transform="matrix(0.06172839506172839,0,0,0.06172839506172839,32.03703703703704,0)" xlink:href="#aj"/><use transform="matrix(0.06172839506172839,0,0,0.06172839506172839,44.382716049382715,0)" xlink:href="#ah"/><use transform="matrix(0.06172839506172839,0,0,0.06172839506172839,56.72839506172839,0)" xlink:href="#ac"/><use transform="matrix(0.06172839506172839,0,0,0.06172839506172839,64.07407407407408,0)" xlink:href="#ak"/><use transform="matrix(0.06172839506172839,0,0,0.06172839506172839,76.41975308641976,0)" xlink:href="#al"/><use transform="matrix(0.06172839506172839,0,0,0.06172839506172839,88.76543209876544,0)" xlink:href="#ak"/><use transform="matrix(0.06172839506172839,0,0,0.06172839506172839,101.11111111111113,0)" xlink:href="#am"/><use transform="matrix(0.06172839506172839,0,0,0.06172839506172839,113.45679012345681,0)" xlink:href="#an"/></g><path fill="#008a0e" d="M24-248c93 1 206-16 204 79-1 75-69 88-152 82V0H24v-248zm52 121c47 0 100 7 100-41 0-47-54-39-100-39v80" id="ao"/><path fill="#008a0e" d="M135-150c-39-12-60 13-60 57V0H25l-1-190h47c2 13-1 29 3 40 6-28 27-53 61-41v41" id="ap"/><path fill="#008a0e" d="M185-48c-13 30-37 53-82 52C43 2 14-33 14-96s30-98 90-98c62 0 83 45 84 108H66c0 31 8 55 39 56 18 0 30-7 34-22zm-45-69c5-46-57-63-70-21-2 6-4 13-4 21h74" id="aq"/><path fill="#008a0e" d="M190-63c-7 42-38 67-86 67-59 0-84-38-90-98-12-110 154-137 174-36l-49 2c-2-19-15-32-35-32-30 0-35 28-38 64-6 74 65 87 74 30" id="ar"/><path fill="#008a0e" d="M25-224v-37h50v37H25zM25 0v-190h50V0H25" id="as"/><path fill="#008a0e" d="M135-194c53 0 70 44 70 98 0 56-19 98-73 100-31 1-45-17-59-34 3 33 2 69 2 105H25l-1-265h48c2 10 0 23 3 31 11-24 29-35 60-35zM114-30c33 0 39-31 40-66 0-38-9-64-40-64-56 0-55 130 0 130" id="at"/><path fill="#008a0e" d="M115-3C79 11 28 4 28-45v-112H4v-33h27l15-45h31v45h36v33H77v99c-1 23 16 31 38 25v30" id="au"/><path fill="#008a0e" d="M133-34C117-15 103 5 69 4 32 3 11-16 11-54c-1-60 55-63 116-61 1-26-3-47-28-47-18 1-26 9-28 27l-52-2c7-38 36-58 82-57s74 22 75 68l1 82c-1 14 12 18 25 15v27c-30 8-71 5-69-32zm-48 3c29 0 43-24 42-57-32 0-66-3-65 30 0 17 8 27 23 27" id="av"/><path fill="#008a0e" d="M110-194c64 0 96 36 96 99 0 64-35 99-97 99-61 0-95-36-95-99 0-62 34-99 96-99zm-1 164c35 0 45-28 45-65 0-40-10-65-43-65-34 0-45 26-45 65 0 36 10 65 43 65" id="aw"/><path fill="#008a0e" d="M135-194c87-1 58 113 63 194h-50c-7-57 23-157-34-157-59 0-34 97-39 157H25l-1-190h47c2 12-1 28 3 38 12-26 28-41 61-42" id="ax"/><g id="d"><use transform="matrix(0.06172839506172839,0,0,0.06172839506172839,0,0)" xlink:href="#ao"/><use transform="matrix(0.06172839506172839,0,0,0.06172839506172839,14.814814814814813,0)" xlink:href="#ap"/><use transform="matrix(0.06172839506172839,0,0,0.06172839506172839,23.456790123456788,0)" xlink:href="#aq"/><use transform="matrix(0.06172839506172839,0,0,0.06172839506172839,35.80246913580247,0)" xlink:href="#ar"/><use transform="matrix(0.06172839506172839,0,0,0.06172839506172839,48.148148148148145,0)" xlink:href="#as"/><use transform="matrix(0.06172839506172839,0,0,0.06172839506172839,54.32098765432099,0)" xlink:href="#at"/><use transform="matrix(0.06172839506172839,0,0,0.06172839506172839,67.8395061728395,0)" xlink:href="#as"/><use transform="matrix(0.06172839506172839,0,0,0.06172839506172839,74.01234567901234,0)" xlink:href="#au"/><use transform="matrix(0.06172839506172839,0,0,0.06172839506172839,81.35802469135803,0)" xlink:href="#av"/><use transform="matrix(0.06172839506172839,0,0,0.06172839506172839,93.70370370370371,0)" xlink:href="#au"/><use transform="matrix(0.06172839506172839,0,0,0.06172839506172839,101.0493827160494,0)" xlink:href="#as"/><use transform="matrix(0.06172839506172839,0,0,0.06172839506172839,107.22222222222223,0)" xlink:href="#aw"/><use transform="matrix(0.06172839506172839,0,0,0.06172839506172839,120.74074074074075,0)" xlink:href="#ax"/></g><path fill="#008a0e" d="M136-208V0H84v-208H4v-40h212v40h-80" id="ay"/><path fill="#008a0e" d="M220-157c-53 9-28 100-34 157h-49v-107c1-27-5-49-29-50C55-147 81-57 75 0H25l-1-190h47c2 12-1 28 3 38 10-53 101-56 108 0 13-22 24-43 59-42 82 1 51 116 57 194h-49v-107c-1-25-5-48-29-50" id="az"/><path fill="#008a0e" d="M85 4C-2 5 27-109 22-190h50c7 57-23 150 33 157 60-5 35-97 40-157h50l1 190h-47c-2-12 1-28-3-38-12 25-28 42-61 42" id="aA"/><g id="e"><use transform="matrix(0.06172839506172839,0,0,0.06172839506172839,0,0)" xlink:href="#ay"/><use transform="matrix(0.06172839506172839,0,0,0.06172839506172839,11.851851851851851,0)" xlink:href="#aq"/><use transform="matrix(0.06172839506172839,0,0,0.06172839506172839,24.19753086419753,0)" xlink:href="#az"/><use transform="matrix(0.06172839506172839,0,0,0.06172839506172839,43.95061728395062,0)" xlink:href="#at"/><use transform="matrix(0.06172839506172839,0,0,0.06172839506172839,57.46913580246914,0)" xlink:href="#aq"/><use transform="matrix(0.06172839506172839,0,0,0.06172839506172839,69.81481481481482,0)" xlink:href="#ap"/><use transform="matrix(0.06172839506172839,0,0,0.06172839506172839,78.4567901234568,0)" xlink:href="#av"/><use transform="matrix(0.06172839506172839,0,0,0.06172839506172839,90.80246913580248,0)" xlink:href="#au"/><use transform="matrix(0.06172839506172839,0,0,0.06172839506172839,98.14814814814817,0)" xlink:href="#aA"/><use transform="matrix(0.06172839506172839,0,0,0.06172839506172839,111.66666666666669,0)" xlink:href="#ap"/><use transform="matrix(0.06172839506172839,0,0,0.06172839506172839,120.30864197530866,0)" xlink:href="#aq"/></g><path fill="#008a0e" d="M147 0H94L2-248h55l64 206c17-72 42-137 63-206h54" id="aB"/><path fill="#008a0e" d="M25 0v-261h50V0H25" id="aC"/><g id="f"><use transform="matrix(0.06172839506172839,0,0,0.06172839506172839,0,0)" xlink:href="#aB"/><use transform="matrix(0.06172839506172839,0,0,0.06172839506172839,13.148148148148147,0)" xlink:href="#aw"/><use transform="matrix(0.06172839506172839,0,0,0.06172839506172839,26.666666666666664,0)" xlink:href="#aC"/><use transform="matrix(0.06172839506172839,0,0,0.06172839506172839,32.839506172839506,0)" xlink:href="#aA"/><use transform="matrix(0.06172839506172839,0,0,0.06172839506172839,46.358024691358025,0)" xlink:href="#az"/><use transform="matrix(0.06172839506172839,0,0,0.06172839506172839,66.11111111111111,0)" xlink:href="#aq"/><use transform="matrix(0.06172839506172839,0,0,0.06172839506172839,78.4567901234568,0)" xlink:href="#au"/><use transform="matrix(0.06172839506172839,0,0,0.06172839506172839,85.80246913580248,0)" xlink:href="#ap"/><use transform="matrix(0.06172839506172839,0,0,0.06172839506172839,94.44444444444446,0)" xlink:href="#as"/><use transform="matrix(0.06172839506172839,0,0,0.06172839506172839,100.61728395061729,0)" xlink:href="#ar"/></g><path fill="#008a0e" d="M169-182c-1-43-94-46-97-3 18 66 151 10 154 114 3 95-165 93-204 36-6-8-10-19-12-30l50-8c3 46 112 56 116 5-17-69-150-10-154-114-4-87 153-88 188-35 5 8 8 18 10 28" id="aD"/><g id="g"><use transform="matrix(0.06172839506172839,0,0,0.06172839506172839,0,0)" xlink:href="#aD"/><use transform="matrix(0.06172839506172839,0,0,0.06172839506172839,14.814814814814813,0)" xlink:href="#aw"/><use transform="matrix(0.06172839506172839,0,0,0.06172839506172839,28.33333333333333,0)" xlink:href="#as"/><use transform="matrix(0.06172839506172839,0,0,0.06172839506172839,34.50617283950617,0)" xlink:href="#aC"/></g><path fill="#008a0e" d="M275 0h-61l-44-196L126 0H64L0-248h53L97-49l45-199h58l43 199 44-199h52" id="aE"/><g id="h"><use transform="matrix(0.06172839506172839,0,0,0.06172839506172839,0,0)" xlink:href="#aE"/><use transform="matrix(0.06172839506172839,0,0,0.06172839506172839,20.123456790123456,0)" xlink:href="#av"/><use transform="matrix(0.06172839506172839,0,0,0.06172839506172839,32.46913580246913,0)" xlink:href="#au"/><use transform="matrix(0.06172839506172839,0,0,0.06172839506172839,39.81481481481481,0)" xlink:href="#aq"/><use transform="matrix(0.06172839506172839,0,0,0.06172839506172839,52.16049382716049,0)" xlink:href="#ap"/></g><path fill="#008a0e" d="M67-93c0 74 22 123 53 168H70C40 30 18-18 18-93s22-123 52-168h50c-32 44-53 94-53 168" id="aF"/><path fill="#008a0e" d="M23 0v-37h61v-169l-59 37v-38l62-41h46v211h57V0H23" id="aG"/><g id="i"><use transform="matrix(0.06172839506172839,0,0,0.06172839506172839,0,0)" xlink:href="#aF"/><use transform="matrix(0.06172839506172839,0,0,0.06172839506172839,7.345679012345679,0)" xlink:href="#aG"/></g><use transform="matrix(0.06172839506172839,0,0,0.06172839506172839,0,0)" xlink:href="#az" id="j"/><path fill="#008a0e" d="M88-194c31-1 46 15 58 34l-1-101h50l1 261h-48c-2-10 0-23-3-31C134-8 116 4 84 4 32 4 16-41 15-95c0-56 19-97 73-99zm17 164c33 0 40-30 41-66 1-37-9-64-41-64s-38 30-39 65c0 43 13 65 39 65" id="aH"/><path fill="#008a0e" d="M114-157C55-157 80-60 75 0H25v-261h50l-1 109c12-26 28-41 61-42 86-1 58 113 63 194h-50c-7-57 23-157-34-157" id="aI"/><path fill="#008a0e" d="M102-93c0 74-22 123-52 168H0C30 29 54-18 53-93c0-74-22-123-53-168h50c30 45 52 94 52 168" id="aJ"/><g id="k"><use transform="matrix(0.06172839506172839,0,0,0.06172839506172839,0,0)" xlink:href="#aH"/><use transform="matrix(0.06172839506172839,0,0,0.06172839506172839,13.518518518518517,0)" xlink:href="#aq"/><use transform="matrix(0.06172839506172839,0,0,0.06172839506172839,25.864197530864196,0)" xlink:href="#at"/><use transform="matrix(0.06172839506172839,0,0,0.06172839506172839,39.382716049382715,0)" xlink:href="#au"/><use transform="matrix(0.06172839506172839,0,0,0.06172839506172839,46.72839506172839,0)" xlink:href="#aI"/><use transform="matrix(0.06172839506172839,0,0,0.06172839506172839,60.24691358024691,0)" xlink:href="#aJ"/></g><path fill="#e81313" d="M199 0l-22-63H83L61 0H9l90-248h61L250 0h-51zm-33-102l-36-108c-10 38-24 72-36 108h72" id="aK"/><path fill="#e81313" d="M115-3C79 11 28 4 28-45v-112H4v-33h27l15-45h31v45h36v33H77v99c-1 23 16 31 38 25v30" id="aL"/><path fill="#e81313" d="M220-157c-53 9-28 100-34 157h-49v-107c1-27-5-49-29-50C55-147 81-57 75 0H25l-1-190h47c2 12-1 28 3 38 10-53 101-56 108 0 13-22 24-43 59-42 82 1 51 116 57 194h-49v-107c-1-25-5-48-29-50" id="aM"/><path fill="#e81313" d="M110-194c64 0 96 36 96 99 0 64-35 99-97 99-61 0-95-36-95-99 0-62 34-99 96-99zm-1 164c35 0 45-28 45-65 0-40-10-65-43-65-34 0-45 26-45 65 0 36 10 65 43 65" id="aN"/><path fill="#e81313" d="M137-138c1-29-70-34-71-4 15 46 118 7 119 86 1 83-164 76-172 9l43-7c4 19 20 25 44 25 33 8 57-30 24-41C81-84 22-81 20-136c-2-80 154-74 161-7" id="aO"/><path fill="#e81313" d="M135-194c53 0 70 44 70 98 0 56-19 98-73 100-31 1-45-17-59-34 3 33 2 69 2 105H25l-1-265h48c2 10 0 23 3 31 11-24 29-35 60-35zM114-30c33 0 39-31 40-66 0-38-9-64-40-64-56 0-55 130 0 130" id="aP"/><path fill="#e81313" d="M114-157C55-157 80-60 75 0H25v-261h50l-1 109c12-26 28-41 61-42 86-1 58 113 63 194h-50c-7-57 23-157-34-157" id="aQ"/><path fill="#e81313" d="M185-48c-13 30-37 53-82 52C43 2 14-33 14-96s30-98 90-98c62 0 83 45 84 108H66c0 31 8 55 39 56 18 0 30-7 34-22zm-45-69c5-46-57-63-70-21-2 6-4 13-4 21h74" id="aR"/><path fill="#e81313" d="M135-150c-39-12-60 13-60 57V0H25l-1-190h47c2 13-1 29 3 40 6-28 27-53 61-41v41" id="aS"/><path fill="#e81313" d="M25-224v-37h50v37H25zM25 0v-190h50V0H25" id="aT"/><path fill="#e81313" d="M190-63c-7 42-38 67-86 67-59 0-84-38-90-98-12-110 154-137 174-36l-49 2c-2-19-15-32-35-32-30 0-35 28-38 64-6 74 65 87 74 30" id="aU"/><g id="l"><use transform="matrix(0.049382716049382706,0,0,0.049382716049382706,0,0)" xlink:href="#aK"/><use transform="matrix(0.049382716049382706,0,0,0.049382716049382706,12.790123456790122,0)" xlink:href="#aL"/><use transform="matrix(0.049382716049382706,0,0,0.049382716049382706,18.666666666666664,0)" xlink:href="#aM"/><use transform="matrix(0.049382716049382706,0,0,0.049382716049382706,34.46913580246913,0)" xlink:href="#aN"/><use transform="matrix(0.049382716049382706,0,0,0.049382716049382706,45.28395061728395,0)" xlink:href="#aO"/><use transform="matrix(0.049382716049382706,0,0,0.049382716049382706,55.160493827160494,0)" xlink:href="#aP"/><use transform="matrix(0.049382716049382706,0,0,0.049382716049382706,65.9753086419753,0)" xlink:href="#aQ"/><use transform="matrix(0.049382716049382706,0,0,0.049382716049382706,76.79012345679011,0)" xlink:href="#aR"/><use transform="matrix(0.049382716049382706,0,0,0.049382716049382706,86.66666666666666,0)" xlink:href="#aS"/><use transform="matrix(0.049382716049382706,0,0,0.049382716049382706,93.58024691358024,0)" xlink:href="#aT"/><use transform="matrix(0.049382716049382706,0,0,0.049382716049382706,98.5185185185185,0)" xlink:href="#aU"/></g><path fill="#e81313" d="M24 0v-248h195v40H76v63h132v40H76v65h150V0H24" id="aV"/><path fill="#e81313" d="M128 0H69L1-190h53L99-40l48-150h52" id="aW"/><path fill="#e81313" d="M133-34C117-15 103 5 69 4 32 3 11-16 11-54c-1-60 55-63 116-61 1-26-3-47-28-47-18 1-26 9-28 27l-52-2c7-38 36-58 82-57s74 22 75 68l1 82c-1 14 12 18 25 15v27c-30 8-71 5-69-32zm-48 3c29 0 43-24 42-57-32 0-66-3-65 30 0 17 8 27 23 27" id="aX"/><g id="m"><use transform="matrix(0.049382716049382706,0,0,0.049382716049382706,0,0)" xlink:href="#aV"/><use transform="matrix(0.049382716049382706,0,0,0.049382716049382706,11.85185185185185,0)" xlink:href="#aW"/><use transform="matrix(0.049382716049382706,0,0,0.049382716049382706,21.728395061728392,0)" xlink:href="#aX"/><use transform="matrix(0.049382716049382706,0,0,0.049382716049382706,31.604938271604933,0)" xlink:href="#aP"/><use transform="matrix(0.049382716049382706,0,0,0.049382716049382706,42.419753086419746,0)" xlink:href="#aN"/><use transform="matrix(0.049382716049382706,0,0,0.049382716049382706,53.234567901234556,0)" xlink:href="#aS"/><use transform="matrix(0.049382716049382706,0,0,0.049382716049382706,60.14814814814814,0)" xlink:href="#aX"/><use transform="matrix(0.049382716049382706,0,0,0.049382716049382706,70.02469135802468,0)" xlink:href="#aL"/><use transform="matrix(0.049382716049382706,0,0,0.049382716049382706,75.90123456790123,0)" xlink:href="#aT"/><use transform="matrix(0.049382716049382706,0,0,0.049382716049382706,80.83950617283949,0)" xlink:href="#aW"/><use transform="matrix(0.049382716049382706,0,0,0.049382716049382706,90.71604938271604,0)" xlink:href="#aR"/></g><path fill="#e81313" d="M24-248c120-7 223 5 221 122C244-46 201 0 124 0H24v-248zM76-40c74 7 117-18 117-86 0-67-45-88-117-82v168" id="aY"/><path fill="#e81313" d="M135-194c87-1 58 113 63 194h-50c-7-57 23-157-34-157-59 0-34 97-39 157H25l-1-190h47c2 12-1 28 3 38 12-26 28-41 61-42" id="aZ"/><path fill="#e81313" d="M88-194c31-1 46 15 58 34l-1-101h50l1 261h-48c-2-10 0-23-3-31C134-8 116 4 84 4 32 4 16-41 15-95c0-56 19-97 73-99zm17 164c33 0 40-30 41-66 1-37-9-64-41-64s-38 30-39 65c0 43 13 65 39 65" id="ba"/><g id="n"><use transform="matrix(0.049382716049382706,0,0,0.049382716049382706,0,0)" xlink:href="#aY"/><use transform="matrix(0.049382716049382706,0,0,0.049382716049382706,12.790123456790122,0)" xlink:href="#aR"/><use transform="matrix(0.049382716049382706,0,0,0.049382716049382706,22.666666666666664,0)" xlink:href="#aM"/><use transform="matrix(0.049382716049382706,0,0,0.049382716049382706,38.46913580246913,0)" xlink:href="#aX"/><use transform="matrix(0.049382716049382706,0,0,0.049382716049382706,48.34567901234567,0)" xlink:href="#aZ"/><use transform="matrix(0.049382716049382706,0,0,0.049382716049382706,59.16049382716048,0)" xlink:href="#ba"/></g><path fill="#e81313" d="M67-93c0 74 22 123 53 168H70C40 30 18-18 18-93s22-123 52-168h50c-32 44-53 94-53 168" id="bb"/><path fill="#e81313" d="M102-93c0 74-22 123-52 168H0C30 29 54-18 53-93c0-74-22-123-53-168h50c30 45 52 94 52 168" id="bc"/><g id="o"><use transform="matrix(0.049382716049382706,0,0,0.049382716049382706,0,0)" xlink:href="#bb"/><use transform="matrix(0.049382716049382706,0,0,0.049382716049382706,5.876543209876542,0)" xlink:href="#aK"/><use transform="matrix(0.049382716049382706,0,0,0.049382716049382706,18.666666666666664,0)" xlink:href="#aV"/><use transform="matrix(0.049382716049382706,0,0,0.049382716049382706,30.518518518518512,0)" xlink:href="#aY"/><use transform="matrix(0.049382716049382706,0,0,0.049382716049382706,43.30864197530863,0)" xlink:href="#bc"/></g><path fill="#282c33" d="M169-182c-1-43-94-46-97-3 18 66 151 10 154 114 3 95-165 93-204 36-6-8-10-19-12-30l50-8c3 46 112 56 116 5-17-69-150-10-154-114-4-87 153-88 188-35 5 8 8 18 10 28" id="bd"/><path fill="#282c33" d="M24-248c93 1 206-16 204 79-1 75-69 88-152 82V0H24v-248zm52 121c47 0 100 7 100-41 0-47-54-39-100-39v80" id="be"/><path fill="#282c33" d="M24 0v-248h195v40H76v63h132v40H76v65h150V0H24" id="bf"/><path fill="#282c33" d="M24 0v-248h52V0H24" id="bg"/><g id="p"><use transform="matrix(0.06172839506172839,0,0,0.06172839506172839,0,0)" xlink:href="#bd"/><use transform="matrix(0.06172839506172839,0,0,0.06172839506172839,14.814814814814813,0)" xlink:href="#be"/><use transform="matrix(0.06172839506172839,0,0,0.06172839506172839,29.629629629629626,0)" xlink:href="#bf"/><use transform="matrix(0.06172839506172839,0,0,0.06172839506172839,44.44444444444444,0)" xlink:href="#bg"/></g><path fill="#282c33" d="M87 75C49 33 22-17 22-94c0-76 28-126 65-167h31c-38 41-64 92-64 168S80 34 118 75H87" id="bh"/><path fill="#282c33" d="M27 0v-27h64v-190l-56 39v-29l58-41h29v221h61V0H27" id="bi"/><path fill="#282c33" d="M99-251c64 0 84 50 84 122C183-37 130 33 47-8c-14-7-20-23-25-40l30-5c6 39 69 39 84 7 9-19 16-44 16-74-10 22-31 35-62 35-49 0-73-33-73-83 0-54 28-83 82-83zm-1 141c31-1 51-18 51-49 0-36-14-67-51-67-34 0-49 23-49 58 0 34 15 58 49 58" id="bj"/><path fill="#282c33" d="M134-131c28 9 52 24 51 62-1 50-34 73-85 73S17-19 16-69c0-36 21-54 49-61-75-25-45-126 34-121 46 3 78 18 79 63 0 33-17 51-44 57zm-34-11c31 1 46-15 46-44 0-28-17-43-47-42-29 0-46 13-45 42 1 28 16 44 46 44zm1 122c35 0 51-18 51-52 0-30-18-46-53-46-33 0-51 17-51 47 0 34 19 51 53 51" id="bk"/><path fill="#282c33" d="M16-82v-28h88v28H16" id="bl"/><path fill="#282c33" d="M101-251c82-7 93 87 43 132L82-64C71-53 59-42 53-27h129V0H18c2-99 128-94 128-182 0-28-16-43-45-43s-46 15-49 41l-32-3c6-41 34-60 81-64" id="bm"/><path fill="#282c33" d="M101-251c68 0 85 55 85 127S166 4 100 4C33 4 14-52 14-124c0-73 17-127 87-127zm-1 229c47 0 54-49 54-102s-4-102-53-102c-51 0-55 48-55 102 0 53 5 102 54 102" id="bn"/><path fill="#282c33" d="M126-127c33 6 58 20 58 59 0 88-139 92-164 29-3-8-5-16-6-25l32-3c6 27 21 44 54 44 32 0 52-15 52-46 0-38-36-46-79-43v-28c39 1 72-4 72-42 0-27-17-43-46-43-28 0-47 15-49 41l-32-3c6-42 35-63 81-64 48-1 79 21 79 65 0 36-21 52-52 59" id="bo"/><path fill="#282c33" d="M33-261c38 41 65 92 65 168S71 34 33 75H2C39 34 66-17 66-93S39-220 2-261h31" id="bp"/><g id="q"><use transform="matrix(0.06172839506172839,0,0,0.06172839506172839,0,0)" xlink:href="#bh"/><use transform="matrix(0.06172839506172839,0,0,0.06172839506172839,7.345679012345679,0)" xlink:href="#bi"/><use transform="matrix(0.06172839506172839,0,0,0.06172839506172839,19.691358024691358,0)" xlink:href="#bj"/><use transform="matrix(0.06172839506172839,0,0,0.06172839506172839,32.03703703703704,0)" xlink:href="#bk"/><use transform="matrix(0.06172839506172839,0,0,0.06172839506172839,44.382716049382715,0)" xlink:href="#bi"/><use transform="matrix(0.06172839506172839,0,0,0.06172839506172839,56.72839506172839,0)" xlink:href="#bl"/><use transform="matrix(0.06172839506172839,0,0,0.06172839506172839,64.07407407407408,0)" xlink:href="#bm"/><use transform="matrix(0.06172839506172839,0,0,0.06172839506172839,76.41975308641976,0)" xlink:href="#bn"/><use transform="matrix(0.06172839506172839,0,0,0.06172839506172839,88.76543209876544,0)" xlink:href="#bm"/><use transform="matrix(0.06172839506172839,0,0,0.06172839506172839,101.11111111111113,0)" xlink:href="#bo"/><use transform="matrix(0.06172839506172839,0,0,0.06172839506172839,113.45679012345681,0)" xlink:href="#bp"/></g><g id="r"><use transform="matrix(0.06172839506172839,0,0,0.06172839506172839,0,0)" xlink:href="#bd"/><use transform="matrix(0.06172839506172839,0,0,0.06172839506172839,14.814814814814813,0)" xlink:href="#be"/><use transform="matrix(0.06172839506172839,0,0,0.06172839506172839,29.629629629629626,0)" xlink:href="#bg"/></g><path fill="#282c33" d="M24-248c120-7 223 5 221 122C244-46 201 0 124 0H24v-248zM76-40c74 7 117-18 117-86 0-67-45-88-117-82v168" id="bq"/><g id="s"><use transform="matrix(0.06172839506172839,0,0,0.06172839506172839,0,0)" xlink:href="#bf"/><use transform="matrix(0.06172839506172839,0,0,0.06172839506172839,14.814814814814813,0)" xlink:href="#bq"/><use transform="matrix(0.06172839506172839,0,0,0.06172839506172839,30.80246913580247,0)" xlink:href="#bq"/><use transform="matrix(0.06172839506172839,0,0,0.06172839506172839,46.79012345679012,0)" xlink:href="#bg"/></g><g id="t"><use transform="matrix(0.06172839506172839,0,0,0.06172839506172839,0,0)" xlink:href="#bd"/><use transform="matrix(0.06172839506172839,0,0,0.06172839506172839,14.814814814814813,0)" xlink:href="#bd"/><use transform="matrix(0.06172839506172839,0,0,0.06172839506172839,29.629629629629626,0)" xlink:href="#bg"/></g><path fill="#1071e5" d="M230 0l2-204L168 0h-37L68-204 70 0H24v-248h70l56 185 57-185h69V0h-46" id="br"/><path fill="#1071e5" d="M140-251c80 0 125 45 125 126S219 4 139 4C58 4 15-44 15-125s44-126 125-126zm-1 214c52 0 73-35 73-88 0-50-21-86-72-86-52 0-73 35-73 86s22 88 72 88" id="bs"/><path fill="#1071e5" d="M24 0v-54h51V0H24" id="bt"/><path fill="#1071e5" d="M115-159c48 0 72 30 72 78 0 54-30 85-83 85-64 0-91-50-91-122 0-98 58-163 141-120 15 8 21 24 27 44l-47 6c-5-31-48-31-61-4-7 14-11 33-11 60 9-17 28-27 53-27zM102-35c24 0 36-20 36-45s-11-43-37-43c-23 0-36 14-36 38 0 27 11 50 37 50" id="bu"/><g id="u"><use transform="matrix(0.06172839506172839,0,0,0.06172839506172839,0,0)" xlink:href="#br"/><use transform="matrix(0.06172839506172839,0,0,0.06172839506172839,18.456790123456788,0)" xlink:href="#bs"/><use transform="matrix(0.06172839506172839,0,0,0.06172839506172839,35.74074074074073,0)" xlink:href="#af"/><use transform="matrix(0.06172839506172839,0,0,0.06172839506172839,51.728395061728385,0)" xlink:href="#ah"/><use transform="matrix(0.06172839506172839,0,0,0.06172839506172839,64.07407407407406,0)" xlink:href="#am"/><use transform="matrix(0.06172839506172839,0,0,0.06172839506172839,76.41975308641975,0)" xlink:href="#aa"/><use transform="matrix(0.06172839506172839,0,0,0.06172839506172839,92.4074074074074,0)" xlink:href="#am"/><use transform="matrix(0.06172839506172839,0,0,0.06172839506172839,104.75308641975309,0)" xlink:href="#bt"/><use transform="matrix(0.06172839506172839,0,0,0.06172839506172839,110.92592592592592,0)" xlink:href="#al"/><use transform="matrix(0.06172839506172839,0,0,0.06172839506172839,123.27160493827161,0)" xlink:href="#bu"/><use transform="matrix(0.06172839506172839,0,0,0.06172839506172839,135.6172839506173,0)" xlink:href="#ah"/></g><g id="v"><use transform="matrix(0.06172839506172839,0,0,0.06172839506172839,0,0)" xlink:href="#ag"/><use transform="matrix(0.06172839506172839,0,0,0.06172839506172839,7.345679012345679,0)" xlink:href="#ak"/><use transform="matrix(0.06172839506172839,0,0,0.06172839506172839,19.691358024691358,0)" xlink:href="#al"/><use transform="matrix(0.06172839506172839,0,0,0.06172839506172839,32.03703703703704,0)" xlink:href="#al"/><use transform="matrix(0.06172839506172839,0,0,0.06172839506172839,44.382716049382715,0)" xlink:href="#al"/><use transform="matrix(0.06172839506172839,0,0,0.06172839506172839,56.72839506172839,0)" xlink:href="#ac"/><use transform="matrix(0.06172839506172839,0,0,0.06172839506172839,64.07407407407408,0)" xlink:href="#ak"/><use transform="matrix(0.06172839506172839,0,0,0.06172839506172839,76.41975308641976,0)" xlink:href="#al"/><use transform="matrix(0.06172839506172839,0,0,0.06172839506172839,88.76543209876544,0)" xlink:href="#ak"/><use transform="matrix(0.06172839506172839,0,0,0.06172839506172839,101.11111111111113,0)" xlink:href="#am"/><use transform="matrix(0.06172839506172839,0,0,0.06172839506172839,113.45679012345681,0)" xlink:href="#an"/></g><path fill="#282c33" d="M12 0v-35l95-120H19v-35h142v35L67-36h103V0H12" id="bv"/><path fill="#282c33" d="M190-63c-7 42-38 67-86 67-59 0-84-38-90-98-12-110 154-137 174-36l-49 2c-2-19-15-32-35-32-30 0-35 28-38 64-6 74 65 87 74 30" id="bw"/><path fill="#282c33" d="M175 0L67-191c6 58 2 128 3 191H24v-248h59L193-55c-6-58-2-129-3-193h46V0h-61" id="bx"/><path fill="#282c33" d="M147 0H94L2-248h55l64 206c17-72 42-137 63-206h54" id="by"/><g id="w"><use transform="matrix(0.06172839506172839,0,0,0.06172839506172839,0,0)" xlink:href="#bv"/><use transform="matrix(0.06172839506172839,0,0,0.06172839506172839,11.11111111111111,0)" xlink:href="#bw"/><use transform="matrix(0.06172839506172839,0,0,0.06172839506172839,23.45679012345679,0)" xlink:href="#bx"/><use transform="matrix(0.06172839506172839,0,0,0.06172839506172839,39.44444444444444,0)" xlink:href="#bq"/><use transform="matrix(0.06172839506172839,0,0,0.06172839506172839,55.432098765432094,0)" xlink:href="#by"/><use transform="matrix(0.06172839506172839,0,0,0.06172839506172839,70.24691358024691,0)" xlink:href="#bg"/></g><g id="x"><use transform="matrix(0.06172839506172839,0,0,0.06172839506172839,0,0)" xlink:href="#bh"/><use transform="matrix(0.06172839506172839,0,0,0.06172839506172839,7.345679012345679,0)" xlink:href="#bm"/><use transform="matrix(0.06172839506172839,0,0,0.06172839506172839,19.691358024691358,0)" xlink:href="#bn"/><use transform="matrix(0.06172839506172839,0,0,0.06172839506172839,32.03703703703704,0)" xlink:href="#bn"/><use transform="matrix(0.06172839506172839,0,0,0.06172839506172839,44.382716049382715,0)" xlink:href="#bn"/><use transform="matrix(0.06172839506172839,0,0,0.06172839506172839,56.72839506172839,0)" xlink:href="#bl"/><use transform="matrix(0.06172839506172839,0,0,0.06172839506172839,64.07407407407408,0)" xlink:href="#bm"/><use transform="matrix(0.06172839506172839,0,0,0.06172839506172839,76.41975308641976,0)" xlink:href="#bn"/><use transform="matrix(0.06172839506172839,0,0,0.06172839506172839,88.76543209876544,0)" xlink:href="#bm"/><use transform="matrix(0.06172839506172839,0,0,0.06172839506172839,101.11111111111113,0)" xlink:href="#bo"/><use transform="matrix(0.06172839506172839,0,0,0.06172839506172839,113.45679012345681,0)" xlink:href="#bp"/></g><path fill="#008a0e" d="M195-6C206 82 75 100 31 46c-4-6-6-13-8-21l49-6c3 16 16 24 34 25 40 0 42-37 40-79-11 22-30 35-61 35-53 0-70-43-70-97 0-56 18-96 73-97 30 0 46 14 59 34l2-30h47zm-90-29c32 0 41-27 41-63 0-35-9-62-40-62-32 0-39 29-40 63 0 36 9 62 39 62" id="bz"/><g id="y"><use transform="matrix(0.06172839506172839,0,0,0.06172839506172839,0,0)" xlink:href="#aD"/><use transform="matrix(0.06172839506172839,0,0,0.06172839506172839,14.814814814814813,0)" xlink:href="#az"/><use transform="matrix(0.06172839506172839,0,0,0.06172839506172839,34.5679012345679,0)" xlink:href="#aw"/><use transform="matrix(0.06172839506172839,0,0,0.06172839506172839,48.08641975308642,0)" xlink:href="#aw"/><use transform="matrix(0.06172839506172839,0,0,0.06172839506172839,61.60493827160494,0)" xlink:href="#au"/><use transform="matrix(0.06172839506172839,0,0,0.06172839506172839,68.95061728395062,0)" xlink:href="#aI"/><use transform="matrix(0.06172839506172839,0,0,0.06172839506172839,82.46913580246914,0)" xlink:href="#as"/><use transform="matrix(0.06172839506172839,0,0,0.06172839506172839,88.64197530864197,0)" xlink:href="#ax"/><use transform="matrix(0.06172839506172839,0,0,0.06172839506172839,102.1604938271605,0)" xlink:href="#bz"/></g><path fill="#008a0e" d="M175 0L67-191c6 58 2 128 3 191H24v-248h59L193-55c-6-58-2-129-3-193h46V0h-61" id="bA"/><path fill="#008a0e" d="M24-248c120-7 223 5 221 122C244-46 201 0 124 0H24v-248zM76-40c74 7 117-18 117-86 0-67-45-88-117-82v168" id="bB"/><path fill="#008a0e" d="M24 0v-248h52V0H24" id="bC"/><g id="z"><use transform="matrix(0.06172839506172839,0,0,0.06172839506172839,0,0)" xlink:href="#bA"/><use transform="matrix(0.06172839506172839,0,0,0.06172839506172839,15.987654320987653,0)" xlink:href="#bB"/><use transform="matrix(0.06172839506172839,0,0,0.06172839506172839,31.975308641975307,0)" xlink:href="#aB"/><use transform="matrix(0.06172839506172839,0,0,0.06172839506172839,46.79012345679012,0)" xlink:href="#bC"/></g><path fill="#1071e5" d="M67-125c0 53 21 87 73 88 37 1 54-22 65-47l45 17C233-25 199 4 140 4 58 4 20-42 15-125 8-235 124-281 211-232c18 10 29 29 36 50l-46 12c-8-25-30-41-62-41-52 0-71 34-72 86" id="bD"/><path fill="#1071e5" d="M140-251c80 0 125 45 125 126 0 70-33 111-92 124 6 28 34 38 68 31l-1 36C177 83 129 55 120 2 51-6 15-50 15-125c0-81 44-126 125-126zm-1 214c52 0 73-35 73-88 0-50-21-86-72-86-52 0-73 35-73 86s22 88 72 88" id="bE"/><g id="A"><use transform="matrix(0.06172839506172839,0,0,0.06172839506172839,0,0)" xlink:href="#br"/><use transform="matrix(0.06172839506172839,0,0,0.06172839506172839,18.456790123456788,0)" xlink:href="#bD"/><use transform="matrix(0.06172839506172839,0,0,0.06172839506172839,34.44444444444444,0)" xlink:href="#af"/><use transform="matrix(0.06172839506172839,0,0,0.06172839506172839,50.432098765432094,0)" xlink:href="#ah"/><use transform="matrix(0.06172839506172839,0,0,0.06172839506172839,62.77777777777777,0)" xlink:href="#ak"/><use transform="matrix(0.06172839506172839,0,0,0.06172839506172839,75.12345679012346,0)" xlink:href="#bE"/><use transform="matrix(0.06172839506172839,0,0,0.06172839506172839,92.4074074074074,0)" xlink:href="#ah"/><use transform="matrix(0.06172839506172839,0,0,0.06172839506172839,104.75308641975309,0)" xlink:href="#bt"/><use transform="matrix(0.06172839506172839,0,0,0.06172839506172839,110.92592592592592,0)" xlink:href="#al"/><use transform="matrix(0.06172839506172839,0,0,0.06172839506172839,123.27160493827161,0)" xlink:href="#bu"/><use transform="matrix(0.06172839506172839,0,0,0.06172839506172839,135.6172839506173,0)" xlink:href="#ah"/></g><g id="B"><use transform="matrix(0.06172839506172839,0,0,0.06172839506172839,0,0)" xlink:href="#ag"/><use transform="matrix(0.06172839506172839,0,0,0.06172839506172839,7.345679012345679,0)" xlink:href="#ak"/><use transform="matrix(0.06172839506172839,0,0,0.06172839506172839,19.691358024691358,0)" xlink:href="#al"/><use transform="matrix(0.06172839506172839,0,0,0.06172839506172839,32.03703703703704,0)" xlink:href="#al"/><use transform="matrix(0.06172839506172839,0,0,0.06172839506172839,44.382716049382715,0)" xlink:href="#ah"/><use transform="matrix(0.06172839506172839,0,0,0.06172839506172839,56.72839506172839,0)" xlink:href="#ac"/><use transform="matrix(0.06172839506172839,0,0,0.06172839506172839,64.07407407407408,0)" xlink:href="#ak"/><use transform="matrix(0.06172839506172839,0,0,0.06172839506172839,76.41975308641976,0)" xlink:href="#al"/><use transform="matrix(0.06172839506172839,0,0,0.06172839506172839,88.76543209876544,0)" xlink:href="#ak"/><use transform="matrix(0.06172839506172839,0,0,0.06172839506172839,101.11111111111113,0)" xlink:href="#ak"/><use transform="matrix(0.06172839506172839,0,0,0.06172839506172839,113.45679012345681,0)" xlink:href="#an"/></g><path fill="#1071e5" d="M135-194c87-1 58 113 63 194h-50c-7-57 23-157-34-157-59 0-34 97-39 157H25l-1-190h47c2 12-1 28 3 38 12-26 28-41 61-42" id="bF"/><path fill="#1071e5" d="M85 4C-2 5 27-109 22-190h50c7 57-23 150 33 157 60-5 35-97 40-157h50l1 190h-47c-2-12 1-28-3-38-12 25-28 42-61 42" id="bG"/><path fill="#1071e5" d="M133-34C117-15 103 5 69 4 32 3 11-16 11-54c-1-60 55-63 116-61 1-26-3-47-28-47-18 1-26 9-28 27l-52-2c7-38 36-58 82-57s74 22 75 68l1 82c-1 14 12 18 25 15v27c-30 8-71 5-69-32zm-48 3c29 0 43-24 42-57-32 0-66-3-65 30 0 17 8 27 23 27" id="bH"/><path fill="#1071e5" d="M25 0v-261h50V0H25" id="bI"/><path fill="#1071e5" d="M123 10C108 53 80 86 19 72V37c35 8 53-11 59-39L3-190h52l48 148c12-52 28-100 44-148h51" id="bJ"/><g id="C"><use transform="matrix(0.06172839506172839,0,0,0.06172839506172839,0,0)" xlink:href="#aa"/><use transform="matrix(0.06172839506172839,0,0,0.06172839506172839,15.987654320987653,0)" xlink:href="#bF"/><use transform="matrix(0.06172839506172839,0,0,0.06172839506172839,29.50617283950617,0)" xlink:href="#bF"/><use transform="matrix(0.06172839506172839,0,0,0.06172839506172839,43.02469135802469,0)" xlink:href="#bG"/><use transform="matrix(0.06172839506172839,0,0,0.06172839506172839,56.54320987654321,0)" xlink:href="#bH"/><use transform="matrix(0.06172839506172839,0,0,0.06172839506172839,68.88888888888889,0)" xlink:href="#bI"/><use transform="matrix(0.06172839506172839,0,0,0.06172839506172839,75.06172839506172,0)" xlink:href="#bJ"/></g><path fill="#008a0e" d="M137-138c1-29-70-34-71-4 15 46 118 7 119 86 1 83-164 76-172 9l43-7c4 19 20 25 44 25 33 8 57-30 24-41C81-84 22-81 20-136c-2-80 154-74 161-7" id="bK"/><g id="D"><use transform="matrix(0.06172839506172839,0,0,0.06172839506172839,0,0)" xlink:href="#ao"/><use transform="matrix(0.06172839506172839,0,0,0.06172839506172839,14.814814814814813,0)" xlink:href="#aq"/><use transform="matrix(0.06172839506172839,0,0,0.06172839506172839,27.160493827160494,0)" xlink:href="#ap"/><use transform="matrix(0.06172839506172839,0,0,0.06172839506172839,35.80246913580247,0)" xlink:href="#bK"/><use transform="matrix(0.06172839506172839,0,0,0.06172839506172839,48.148148148148145,0)" xlink:href="#as"/><use transform="matrix(0.06172839506172839,0,0,0.06172839506172839,54.32098765432099,0)" xlink:href="#bK"/><use transform="matrix(0.06172839506172839,0,0,0.06172839506172839,66.66666666666667,0)" xlink:href="#au"/><use transform="matrix(0.06172839506172839,0,0,0.06172839506172839,74.01234567901236,0)" xlink:href="#aq"/><use transform="matrix(0.06172839506172839,0,0,0.06172839506172839,86.35802469135804,0)" xlink:href="#ax"/><use transform="matrix(0.06172839506172839,0,0,0.06172839506172839,99.87654320987656,0)" xlink:href="#au"/></g><path fill="#008a0e" d="M128 0H69L1-190h53L99-40l48-150h52" id="bL"/><g id="E"><use transform="matrix(0.06172839506172839,0,0,0.06172839506172839,0,0)" xlink:href="#aC"/><use transform="matrix(0.06172839506172839,0,0,0.06172839506172839,6.172839506172839,0)" xlink:href="#av"/><use transform="matrix(0.06172839506172839,0,0,0.06172839506172839,18.51851851851852,0)" xlink:href="#ax"/><use transform="matrix(0.06172839506172839,0,0,0.06172839506172839,32.03703703703704,0)" xlink:href="#aH"/><use transform="matrix(0.06172839506172839,0,0,0.06172839506172839,45.55555555555556,0)" xlink:href="#ar"/><use transform="matrix(0.06172839506172839,0,0,0.06172839506172839,57.901234567901234,0)" xlink:href="#aw"/><use transform="matrix(0.06172839506172839,0,0,0.06172839506172839,71.41975308641975,0)" xlink:href="#bL"/><use transform="matrix(0.06172839506172839,0,0,0.06172839506172839,83.76543209876543,0)" xlink:href="#aq"/><use transform="matrix(0.06172839506172839,0,0,0.06172839506172839,96.11111111111111,0)" xlink:href="#ap"/></g><path fill="#008a0e" d="M15-22v-40l146-57-146-57v-40l181 69v56" id="bM"/><path fill="#008a0e" d="M138-131c27 9 52 24 51 61 0 53-36 74-89 74S11-19 11-69c0-35 22-54 51-61-78-25-46-121 38-121 51 0 83 19 83 66 0 30-18 49-45 54zm-38-16c24 0 32-13 32-36 1-23-11-34-32-34-22 0-33 12-32 34 0 22 9 36 32 36zm1 116c27 0 37-17 37-43 0-25-13-39-39-39-24 0-37 15-37 40 0 27 11 42 39 42" id="bN"/><path fill="#008a0e" d="M101-251c68 0 84 54 84 127C185-50 166 4 99 4S15-52 14-124c-1-75 17-127 87-127zm-1 216c37-5 36-46 36-89s4-89-36-89c-39 0-36 45-36 89 0 43-3 85 36 89" id="bO"/><path fill="#008a0e" d="M249-155c45 1 62 31 62 79-1 48-18 79-63 79s-61-32-62-79c0-48 16-79 63-79zM97 0H61l162-248h36zM9-172c0-48 16-79 63-78 46 0 62 31 62 78 0 48-18 79-63 79S9-124 9-172zM249-25c24 0 24-26 24-51 0-26-1-52-24-52-24 0-25 26-25 52 0 25 0 51 25 51zM71-120c23 0 24-25 24-52 0-26 0-51-23-51-25 0-25 25-25 51 0 27 1 52 24 52" id="bP"/><g id="F"><use transform="matrix(0.06172839506172839,0,0,0.06172839506172839,0,0)" xlink:href="#aF"/><use transform="matrix(0.06172839506172839,0,0,0.06172839506172839,7.345679012345679,0)" xlink:href="#bM"/><use transform="matrix(0.06172839506172839,0,0,0.06172839506172839,20.30864197530864,0)" xlink:href="#bN"/><use transform="matrix(0.06172839506172839,0,0,0.06172839506172839,32.654320987654316,0)" xlink:href="#bO"/><use transform="matrix(0.06172839506172839,0,0,0.06172839506172839,44.99999999999999,0)" xlink:href="#bP"/><use transform="matrix(0.06172839506172839,0,0,0.06172839506172839,64.75308641975307,0)" xlink:href="#aJ"/></g><path fill="#282c33" d="M275 0h-61l-44-196L126 0H64L0-248h53L97-49l45-199h58l43 199 44-199h52" id="bQ"/><path fill="#282c33" d="M133-34C117-15 103 5 69 4 32 3 11-16 11-54c-1-60 55-63 116-61 1-26-3-47-28-47-18 1-26 9-28 27l-52-2c7-38 36-58 82-57s74 22 75 68l1 82c-1 14 12 18 25 15v27c-30 8-71 5-69-32zm-48 3c29 0 43-24 42-57-32 0-66-3-65 30 0 17 8 27 23 27" id="bR"/><path fill="#282c33" d="M115-3C79 11 28 4 28-45v-112H4v-33h27l15-45h31v45h36v33H77v99c-1 23 16 31 38 25v30" id="bS"/><path fill="#282c33" d="M185-48c-13 30-37 53-82 52C43 2 14-33 14-96s30-98 90-98c62 0 83 45 84 108H66c0 31 8 55 39 56 18 0 30-7 34-22zm-45-69c5-46-57-63-70-21-2 6-4 13-4 21h74" id="bT"/><path fill="#282c33" d="M135-150c-39-12-60 13-60 57V0H25l-1-190h47c2 13-1 29 3 40 6-28 27-53 61-41v41" id="bU"/><g id="G"><use transform="matrix(0.049382716049382706,0,0,0.049382716049382706,0,0)" xlink:href="#bQ"/><use transform="matrix(0.049382716049382706,0,0,0.049382716049382706,16.098765432098762,0)" xlink:href="#bR"/><use transform="matrix(0.049382716049382706,0,0,0.049382716049382706,25.975308641975303,0)" xlink:href="#bS"/><use transform="matrix(0.049382716049382706,0,0,0.049382716049382706,31.851851851851844,0)" xlink:href="#bT"/><use transform="matrix(0.049382716049382706,0,0,0.049382716049382706,41.728395061728385,0)" xlink:href="#bU"/></g><path fill="#282c33" d="M220-157c-53 9-28 100-34 157h-49v-107c1-27-5-49-29-50C55-147 81-57 75 0H25l-1-190h47c2 12-1 28 3 38 10-53 101-56 108 0 13-22 24-43 59-42 82 1 51 116 57 194h-49v-107c-1-25-5-48-29-50" id="bV"/><path fill="#282c33" d="M135-194c87-1 58 113 63 194h-50c-7-57 23-157-34-157-59 0-34 97-39 157H25l-1-190h47c2 12-1 28 3 38 12-26 28-41 61-42" id="bW"/><path fill="#282c33" d="M88-194c31-1 46 15 58 34l-1-101h50l1 261h-48c-2-10 0-23-3-31C134-8 116 4 84 4 32 4 16-41 15-95c0-56 19-97 73-99zm17 164c33 0 40-30 41-66 1-37-9-64-41-64s-38 30-39 65c0 43 13 65 39 65" id="bX"/><g id="H"><use transform="matrix(0.049382716049382706,0,0,0.049382716049382706,0,0)" xlink:href="#bq"/><use transform="matrix(0.049382716049382706,0,0,0.049382716049382706,12.790123456790122,0)" xlink:href="#bT"/><use transform="matrix(0.049382716049382706,0,0,0.049382716049382706,22.666666666666664,0)" xlink:href="#bV"/><use transform="matrix(0.049382716049382706,0,0,0.049382716049382706,38.46913580246913,0)" xlink:href="#bR"/><use transform="matrix(0.049382716049382706,0,0,0.049382716049382706,48.34567901234567,0)" xlink:href="#bW"/><use transform="matrix(0.049382716049382706,0,0,0.049382716049382706,59.16049382716048,0)" xlink:href="#bX"/></g><path fill="#282c33" d="M85 4C-2 5 27-109 22-190h50c7 57-23 150 33 157 60-5 35-97 40-157h50l1 190h-47c-2-12 1-28-3-38-12 25-28 42-61 42" id="bY"/><path fill="#282c33" d="M135-194c53 0 70 44 70 98 0 56-19 98-73 100-31 1-45-17-59-34 3 33 2 69 2 105H25l-1-265h48c2 10 0 23 3 31 11-24 29-35 60-35zM114-30c33 0 39-31 40-66 0-38-9-64-40-64-56 0-55 130 0 130" id="bZ"/><path fill="#282c33" d="M25 0v-261h50V0H25" id="ca"/><path fill="#282c33" d="M123 10C108 53 80 86 19 72V37c35 8 53-11 59-39L3-190h52l48 148c12-52 28-100 44-148h51" id="cb"/><g id="I"><use transform="matrix(0.049382716049382706,0,0,0.049382716049382706,0,0)" xlink:href="#bd"/><use transform="matrix(0.049382716049382706,0,0,0.049382716049382706,11.85185185185185,0)" xlink:href="#bY"/><use transform="matrix(0.049382716049382706,0,0,0.049382716049382706,22.666666666666664,0)" xlink:href="#bZ"/><use transform="matrix(0.049382716049382706,0,0,0.049382716049382706,33.48148148148148,0)" xlink:href="#bZ"/><use transform="matrix(0.049382716049382706,0,0,0.049382716049382706,44.29629629629629,0)" xlink:href="#ca"/><use transform="matrix(0.049382716049382706,0,0,0.049382716049382706,49.23456790123456,0)" xlink:href="#cb"/></g><g id="J"><use transform="matrix(0.049382716049382706,0,0,0.049382716049382706,0,0)" xlink:href="#bd"/><use transform="matrix(0.049382716049382706,0,0,0.049382716049382706,11.85185185185185,0)" xlink:href="#bY"/><use transform="matrix(0.049382716049382706,0,0,0.049382716049382706,22.666666666666664,0)" xlink:href="#bZ"/><use transform="matrix(0.049382716049382706,0,0,0.049382716049382706,33.48148148148148,0)" xlink:href="#bZ"/><use transform="matrix(0.049382716049382706,0,0,0.049382716049382706,44.29629629629629,0)" xlink:href="#ca"/><use transform="matrix(0.049382716049382706,0,0,0.049382716049382706,49.23456790123456,0)" xlink:href="#cb"/></g><path fill="#282c33" d="M14-72v-43h91v43H14" id="cc"/><use transform="matrix(0.049382716049382706,0,0,0.049382716049382706,0,0)" xlink:href="#cc" id="K"/><g id="L"><use transform="matrix(0.049382716049382706,0,0,0.049382716049382706,0,0)" xlink:href="#bQ"/><use transform="matrix(0.049382716049382706,0,0,0.049382716049382706,16.098765432098762,0)" xlink:href="#bR"/><use transform="matrix(0.049382716049382706,0,0,0.049382716049382706,25.975308641975303,0)" xlink:href="#bS"/><use transform="matrix(0.049382716049382706,0,0,0.049382716049382706,31.851851851851844,0)" xlink:href="#bT"/><use transform="matrix(0.049382716049382706,0,0,0.049382716049382706,41.728395061728385,0)" xlink:href="#bU"/></g><g id="M"><use transform="matrix(0.049382716049382706,0,0,0.049382716049382706,0,0)" xlink:href="#bq"/><use transform="matrix(0.049382716049382706,0,0,0.049382716049382706,12.790123456790122,0)" xlink:href="#bT"/><use transform="matrix(0.049382716049382706,0,0,0.049382716049382706,22.666666666666664,0)" xlink:href="#bV"/><use transform="matrix(0.049382716049382706,0,0,0.049382716049382706,38.46913580246913,0)" xlink:href="#bR"/><use transform="matrix(0.049382716049382706,0,0,0.049382716049382706,48.34567901234567,0)" xlink:href="#bW"/><use transform="matrix(0.049382716049382706,0,0,0.049382716049382706,59.16049382716048,0)" xlink:href="#bX"/></g><path fill="#282c33" d="M110-194c64 0 96 36 96 99 0 64-35 99-97 99-61 0-95-36-95-99 0-62 34-99 96-99zm-1 164c35 0 45-28 45-65 0-40-10-65-43-65-34 0-45 26-45 65 0 36 10 65 43 65" id="cd"/><path fill="#282c33" d="M25-224v-37h50v37H25zM25 0v-190h50V0H25" id="ce"/><g id="N"><use transform="matrix(0.049382716049382706,0,0,0.049382716049382706,0,0)" xlink:href="#bd"/><use transform="matrix(0.049382716049382706,0,0,0.049382716049382706,11.85185185185185,0)" xlink:href="#cd"/><use transform="matrix(0.049382716049382706,0,0,0.049382716049382706,22.666666666666664,0)" xlink:href="#ce"/><use transform="matrix(0.049382716049382706,0,0,0.049382716049382706,27.60493827160494,0)" xlink:href="#ca"/></g><path fill="#282c33" d="M230 0l2-204L168 0h-37L68-204 70 0H24v-248h70l56 185 57-185h69V0h-46" id="cf"/><path fill="#282c33" d="M137-138c1-29-70-34-71-4 15 46 118 7 119 86 1 83-164 76-172 9l43-7c4 19 20 25 44 25 33 8 57-30 24-41C81-84 22-81 20-136c-2-80 154-74 161-7" id="cg"/><g id="O"><use transform="matrix(0.049382716049382706,0,0,0.049382716049382706,0,0)" xlink:href="#cf"/><use transform="matrix(0.049382716049382706,0,0,0.049382716049382706,14.765432098765428,0)" xlink:href="#cd"/><use transform="matrix(0.049382716049382706,0,0,0.049382716049382706,25.580246913580243,0)" xlink:href="#ce"/><use transform="matrix(0.049382716049382706,0,0,0.049382716049382706,30.518518518518512,0)" xlink:href="#cg"/><use transform="matrix(0.049382716049382706,0,0,0.049382716049382706,40.39506172839505,0)" xlink:href="#bS"/><use transform="matrix(0.049382716049382706,0,0,0.049382716049382706,46.271604938271594,0)" xlink:href="#bY"/><use transform="matrix(0.049382716049382706,0,0,0.049382716049382706,57.08641975308641,0)" xlink:href="#bU"/><use transform="matrix(0.049382716049382706,0,0,0.049382716049382706,63.999999999999986,0)" xlink:href="#bT"/></g><path fill="#282c33" d="M195-6C206 82 75 100 31 46c-4-6-6-13-8-21l49-6c3 16 16 24 34 25 40 0 42-37 40-79-11 22-30 35-61 35-53 0-70-43-70-97 0-56 18-96 73-97 30 0 46 14 59 34l2-30h47zm-90-29c32 0 41-27 41-63 0-35-9-62-40-62-32 0-39 29-40 63 0 36 9 62 39 62" id="ch"/><g id="P"><use transform="matrix(0.049382716049382706,0,0,0.049382716049382706,0,0)" xlink:href="#by"/><use transform="matrix(0.049382716049382706,0,0,0.049382716049382706,10.864197530864196,0)" xlink:href="#bT"/><use transform="matrix(0.049382716049382706,0,0,0.049382716049382706,20.740740740740737,0)" xlink:href="#ch"/><use transform="matrix(0.049382716049382706,0,0,0.049382716049382706,31.55555555555555,0)" xlink:href="#bT"/><use transform="matrix(0.049382716049382706,0,0,0.049382716049382706,41.43209876543209,0)" xlink:href="#bS"/><use transform="matrix(0.049382716049382706,0,0,0.049382716049382706,47.30864197530863,0)" xlink:href="#bR"/><use transform="matrix(0.049382716049382706,0,0,0.049382716049382706,57.185185185185176,0)" xlink:href="#bS"/><use transform="matrix(0.049382716049382706,0,0,0.049382716049382706,63.061728395061714,0)" xlink:href="#ce"/><use transform="matrix(0.049382716049382706,0,0,0.049382716049382706,67.99999999999999,0)" xlink:href="#cd"/><use transform="matrix(0.049382716049382706,0,0,0.049382716049382706,78.8148148148148,0)" xlink:href="#bW"/></g><path fill="#282c33" d="M128 0H69L1-190h53L99-40l48-150h52" id="ci"/><g id="Q"><use transform="matrix(0.049382716049382706,0,0,0.049382716049382706,0,0)" xlink:href="#be"/><use transform="matrix(0.049382716049382706,0,0,0.049382716049382706,11.85185185185185,0)" xlink:href="#bU"/><use transform="matrix(0.049382716049382706,0,0,0.049382716049382706,18.76543209876543,0)" xlink:href="#cd"/><use transform="matrix(0.049382716049382706,0,0,0.049382716049382706,29.58024691358024,0)" xlink:href="#bX"/><use transform="matrix(0.049382716049382706,0,0,0.049382716049382706,40.395061728395056,0)" xlink:href="#bY"/><use transform="matrix(0.049382716049382706,0,0,0.049382716049382706,51.20987654320988,0)" xlink:href="#bw"/><use transform="matrix(0.049382716049382706,0,0,0.049382716049382706,61.08641975308642,0)" xlink:href="#bS"/><use transform="matrix(0.049382716049382706,0,0,0.049382716049382706,66.96296296296296,0)" xlink:href="#ce"/><use transform="matrix(0.049382716049382706,0,0,0.049382716049382706,71.90123456790123,0)" xlink:href="#ci"/><use transform="matrix(0.049382716049382706,0,0,0.049382716049382706,81.77777777777777,0)" xlink:href="#ce"/><use transform="matrix(0.049382716049382706,0,0,0.049382716049382706,86.71604938271604,0)" xlink:href="#bS"/><use transform="matrix(0.049382716049382706,0,0,0.049382716049382706,92.59259259259258,0)" xlink:href="#cb"/></g><path fill="#282c33" d="M67-93c0 74 22 123 53 168H70C40 30 18-18 18-93s22-123 52-168h50c-32 44-53 94-53 168" id="cj"/><path fill="#282c33" d="M144 0l-44-69L55 0H2l70-98-66-92h53l41 62 40-62h54l-67 91 71 99h-54" id="ck"/><path fill="#282c33" d="M102-93c0 74-22 123-52 168H0C30 29 54-18 53-93c0-74-22-123-53-168h50c30 45 52 94 52 168" id="cl"/><g id="R"><use transform="matrix(0.049382716049382706,0,0,0.049382716049382706,0,0)" xlink:href="#cj"/><use transform="matrix(0.049382716049382706,0,0,0.049382716049382706,5.876543209876542,0)" xlink:href="#be"/><use transform="matrix(0.049382716049382706,0,0,0.049382716049382706,17.728395061728392,0)" xlink:href="#bU"/><use transform="matrix(0.049382716049382706,0,0,0.049382716049382706,24.64197530864197,0)" xlink:href="#cd"/><use transform="matrix(0.049382716049382706,0,0,0.049382716049382706,35.456790123456784,0)" xlink:href="#ck"/><use transform="matrix(0.049382716049382706,0,0,0.049382716049382706,45.33333333333333,0)" xlink:href="#cb"/><use transform="matrix(0.049382716049382706,0,0,0.049382716049382706,55.20987654320988,0)" xlink:href="#cl"/></g></defs></g></svg>