<?xml version="1.0" encoding="UTF-8"?>
<!-- Generator: Adobe Illustrator 27.4.1, SVG Export Plug-In . SVG Version: 6.00 Build 0)  -->
<svg version="1.1" id="Layer_1" xmlns="http://www.w3.org/2000/svg" xmlns:xlink="http://www.w3.org/1999/xlink" x="0px" y="0px" viewBox="0 0 386.3383179 99.5" style="enable-background:new 0 0 386.3383179 99.5;" xml:space="preserve">
<style type="text/css">
	.st0{fill:#1373BA;}
</style>
<path class="st0" d="M140.7382965,38.1001167h7.1999969v9.2999992c-1,0.2999992-2.1000061,0.5999985-3.1999969,0.7999992  c-1,0.2000008-2.1000061,0.2999992-3.1000061,0.2999992c-2.3000031,0.0999985-4.6000061-0.7000008-6.3000031-2.4000015  c-1.5-2-2.3000031-4.4000015-2.1000061-6.9000015c0-2.9000015,0.8000031-5.2999992,2.5-6.9000015  c1.8999939-1.7000008,4.3999939-2.6000004,6.8999939-2.5c1.8999939,0,3.6999969,0.2999992,5.3999939,1.1000004l-1.3000031,3.0000019  c-1.3000031-0.7000008-2.6999969-1-4.1999969-1c-1.5-0.0999985-3,0.5-4,1.5999985c-1,1.2999992-1.5,2.9000015-1.3999939,4.5  c-0.1000061,1.5999985,0.3000031,3.2000008,1.1999969,4.5c0.8999939,1.0999985,2.1999969,1.5999985,3.6000061,1.5  c0.8000031,0,1.6000061-0.0999985,2.3999939-0.2999992v-3.7999992h-3.5L140.7382965,38.1001167L140.7382965,38.1001167z"/>
<path class="st0" d="M157.7382965,48.5001183c-2,0.0999985-3.8999939-0.5999985-5.3000031-1.9000015  c-1.3999939-1.4000015-2.1000061-3.2999992-1.8999939-5.2999992c-0.1000061-1.9000015,0.5-3.9000015,1.6999969-5.4000015  c1.1999969-1.2999992,3-2,4.8000031-1.9000015c1.6999969-0.0999985,3.3999939,0.5,4.6000061,1.5999985  c1.1999969,1.2999992,1.6999969,3,1.6000061,4.7000008v1.9000015h-8.8999939  c-0.1999969,1.7000008,1.1000061,3.2000008,2.8000031,3.4000015c0.1999969,0,0.3999939,0,0.6000061,0  c0.8000031,0,1.6000061-0.0999985,2.3999939-0.2999992c0.8000031-0.2000008,1.6000061-0.4000015,2.3000031-0.7999992v2.9000015  c-0.6999969,0.2999992-1.3999939,0.5999985-2.1000061,0.7999992  C159.5382843,48.5001183,158.6382904,48.6001167,157.7382965,48.5001183z M157.2382965,36.9001198  c-0.6999969,0-1.3999939,0.2999992-1.8999939,0.7999992c-0.5,0.5999985-0.6999969,1.2999992-0.8000031,2.0999985h5.3000031  c0-0.7999992-0.3000031-1.5-0.8000031-2.0999985C158.7382965,37.1001167,158.2382965,36.9001198,157.2382965,36.9001198z"/>
<path class="st0" d="M179.1382904,48.3001175h-3.8000031v-8c0-0.7999992-0.1000061-1.5-0.5-2.2000008  c-0.3999939-0.5999985-1-0.9000015-1.6999969-0.7999992c-0.8999939-0.0999985-1.8000031,0.2999992-2.3000031,1  c-0.5,1.0999985-0.8000031,2.4000015-0.6999969,3.5999985v6.5h-3.8000031V34.5001183h2.8999939l0.5,1.7999992h0.1999969  c0.3999939-0.7000008,1-1.2000008,1.6999969-1.5c0.8000031-0.2999992,1.6000061-0.5,2.5-0.5  c1.3999939-0.0999985,2.6999969,0.4000015,3.6999969,1.2999992c0.8999939,1.0999985,1.3999939,2.4000015,1.3000031,3.7999992  L179.1382904,48.3001175L179.1382904,48.3001175z"/>
<path class="st0" d="M188.7382965,48.5001183c-2,0.0999985-3.8999939-0.5999985-5.3000031-1.9000015  c-1.3999939-1.4000015-2.1000061-3.2999992-1.8999939-5.2999992c-0.1000061-1.9000015,0.5-3.9000015,1.6999969-5.4000015  c1.1999969-1.2999992,3-2,4.8000031-1.9000015c1.6999969-0.0999985,3.3999939,0.5,4.6000061,1.5999985  c1.1999969,1.2999992,1.6999969,3,1.6000061,4.7000008v1.9000015h-8.8000031  c-0.1999969,1.7000008,1.1000061,3.2000008,2.8000031,3.4000015c0.1999969,0,0.3999939,0,0.6000061,0  c0.8000031,0,1.6000061-0.0999985,2.3999939-0.2999992c0.8000031-0.2000008,1.6000061-0.4000015,2.3000031-0.7999992v2.9000015  c-0.6999969,0.2999992-1.3999939,0.5999985-2.1000061,0.7999992  C190.5382843,48.5001183,189.6382904,48.6001167,188.7382965,48.5001183z M188.2382965,36.9001198  c-0.6999969,0-1.3999939,0.2999992-1.8999939,0.7999992c-0.5,0.5999985-0.6999969,1.2999992-0.8000031,2.0999985h5.3000031  c0-0.7999992-0.3000031-1.5-0.8000031-2.0999985C189.7382965,37.1001167,189.1382904,36.9001198,188.2382965,36.9001198z"/>
<path class="st0" d="M204.9382935,34.1001167c0.3999939,0,0.8999939,0,1.3000031,0.0999985l-0.3000031,3.5999985  c-0.3999939-0.0999985-0.6999969-0.0999985-1.1000061-0.0999985c-1-0.0999985-2,0.2999992-2.8000031,0.9000015  c-0.6999969,0.5999985-1.1000061,1.5999985-1,2.5v7h-3.8000031V34.5001183h2.8000031l0.5,2.2999992h0.1999969  c0.3999939-0.7999992,1-1.4000015,1.6999969-1.9000015C203.2382965,34.5001183,204.0382843,34.200119,204.9382935,34.1001167z"/>
<path class="st0" d="M216.8382874,48.3001175l-0.8000031-1.9000015h-0.1000061  c-0.5,0.7000008-1.1000061,1.2999992-1.8999939,1.5999985c-0.8000031,0.2999992-1.6999969,0.4000015-2.6000061,0.4000015  c-1.1000061,0.0999985-2.3000031-0.2999992-3.1000061-1.0999985c-0.8000031-0.9000015-1.1999969-2-1.1000061-3.2000008  c-0.1000061-1.2999992,0.5-2.5,1.5-3.2000008c1.3999939-0.7999992,3.1000061-1.2000008,4.6999969-1.0999985l2.3999939-0.0999985  v-0.5999985c0.1000061-1-0.6000061-2-1.6000061-2.0999985c-0.1999969,0-0.3000031,0-0.5,0  c-1.3999939,0-2.6999969,0.4000015-3.8999939,1l-1.3000031-2.5c1.6000061-0.9000015,3.5-1.2999992,5.3000031-1.2999992  c1.5-0.0999985,3,0.2999992,4.3000031,1.2000008c1,0.9000015,1.6000061,2.2999992,1.3999939,3.7000008v9.2000008  L216.8382874,48.3001175z M215.7382965,41.9001198l-1.3999939,0.0999985c-0.8999939,0-1.6999969,0.2000008-2.5,0.5999985  c-0.5,0.4000015-0.8000031,1-0.8000031,1.5999985c0,1,0.6000061,1.5999985,1.8000031,1.5999985  c0.6999969,0,1.5-0.2999992,2-0.7999992s0.8000031-1.2000008,0.8000031-1.9000015L215.7382965,41.9001198L215.7382965,41.9001198z"/>
<path class="st0" d="M226.7382965,48.3001175h-3.8000031V29.1001186h3.8000031V48.3001175z"/>
<path class="st0" d="M144.9382935,70.5001221l-1.3000031-4.3000031h-6.6000061l-1.3000031,4.3000031h-4.0999908  l6.3999939-18.2000046h4.6999969l6.3999939,18.2000046H144.9382935z M142.6382904,62.9001198  c-1.1999969-4-1.8999939-6.0999985-2-6.5999985c-0.1999969-0.4000015-0.3000031-0.7999992-0.3000031-1.2000008  c-0.3000031,1-1,3.7000008-2.3000031,7.7999992H142.6382904z"/>
<path class="st0" d="M161.0382843,66.3001251c0.1000061,1.1999969-0.5,2.4000015-1.3999939,3.1999969  c-1.3000031,0.8000031-2.8999939,1.1999969-4.5,1.0999985c-0.8000031,0-1.6999969-0.0999985-2.5-0.1999969  c-0.6999969-0.0999985-1.3000031-0.3000031-1.8999939-0.5999985v-3c0.8000031,0.4000015,1.6000061,0.5999985,2.3999939,0.8000031  c0.6999969,0.1999969,1.5,0.3000031,2.3000031,0.3000031c1.3999939,0,2-0.4000015,2-1.1999969  c0-0.3000031-0.1000061-0.5-0.3000031-0.6999969c-0.3000031-0.1999969-0.6000061-0.4000015-0.8999939-0.5999985  c-0.6000061-0.3000031-1.1999969-0.5999985-1.8000031-0.8000031c-0.8000031-0.3000031-1.6000061-0.7000046-2.3000031-1.2000046  c-0.5-0.2999992-0.8000031-0.7999992-1.1000061-1.2999992c-0.3000031-0.5999985-0.3999939-1.2000008-0.3000031-1.7999992  c0-1.0999985,0.5-2.2000008,1.3999939-2.7999992c1.1999969-0.7999992,2.6999969-1.0999985,4.1000061-1  c1.6999969,0,3.3999939,0.4000015,4.8999939,1.0999985l-1.1000061,2.7000008  c-0.6000061-0.2000008-1.3000031-0.5-1.8999939-0.7999992c-0.6000061-0.2000008-1.3000031-0.2999992-1.8999939-0.2999992  c-1.1000061,0-1.6000061,0.2999992-1.6000061,0.9000015c0,0.2999992,0.1999969,0.5999985,0.5,0.7999992  c0.6999969,0.5,1.5,0.7999992,2.3000031,1.0999985c0.8999939,0.2999992,1.6999969,0.7000008,2.3999939,1.2000008  c0.3999939,0.4000015,0.8000031,0.8000031,1.1000061,1.3000031  C160.9382935,65.1001205,161.0382843,65.6001205,161.0382843,66.3001251z"/>
<path class="st0" d="M173.5382843,66.3001251c0.1000061,1.1999969-0.5,2.4000015-1.3999939,3.1999969  c-1.3000031,0.8000031-2.8999939,1.1999969-4.5,1.0999985c-0.8000031,0-1.6999969-0.0999985-2.5-0.1999969  c-0.6999969-0.0999985-1.3000031-0.3000031-1.8999939-0.5999985v-3c0.8000031,0.4000015,1.6000061,0.5999985,2.3999939,0.8000031  c0.6999969,0.1999969,1.5,0.3000031,2.3000031,0.3000031c1.3999939,0,2-0.4000015,2-1.1999969  c0-0.3000031-0.1000061-0.5-0.3000031-0.6999969c-0.3000031-0.1999969-0.6000061-0.4000015-0.8999939-0.5999985  c-0.6000061-0.3000031-1.1999969-0.5999985-1.8000031-0.8000031c-0.8000031-0.3000031-1.6000061-0.7000046-2.3000031-1.2000046  c-0.5-0.2999992-0.8000031-0.7999992-1.1000061-1.2999992c-0.3000031-0.5999985-0.3999939-1.2000008-0.3000031-1.7999992  c0-1.0999985,0.5-2.2000008,1.3999939-2.7999992c1.1999969-0.7999992,2.6999969-1.0999985,4.1000061-1  c1.6999969,0,3.3999939,0.4000015,4.8999939,1.0999985l-1.1000061,2.7000008  c-0.6000061-0.2000008-1.3000031-0.5-1.8999939-0.7999992c-0.6000061-0.2000008-1.3000031-0.2999992-1.8999939-0.2999992  c-1.1000061,0-1.6000061,0.2999992-1.6000061,0.9000015c0,0.2999992,0.1999969,0.5999985,0.5,0.7999992  c0.6999969,0.5,1.5,0.7999992,2.3000031,1.0999985c0.8999939,0.2999992,1.6999969,0.7000008,2.3999939,1.2000008  c0.5,0.2999992,0.8000031,0.8000031,1.1000061,1.3000031C173.4382935,65.1001205,173.5382843,65.6001205,173.5382843,66.3001251z"/>
<path class="st0" d="M182.4382935,70.700119c-2,0.0999985-3.8999939-0.5999985-5.3000031-1.9000015  c-1.3999939-1.4000015-2.1000061-3.3000031-1.8999939-5.3000031c-0.1000061-1.9000015,0.5-3.9000015,1.6999969-5.4000015  c1.1999969-1.2999992,3-2,4.8000031-1.9000015c1.6999969-0.0999985,3.3999939,0.5,4.6000061,1.5999985  c1.1999969,1.2999992,1.6999969,3,1.6000061,4.7000008v1.8000069h-8.8999939  c-0.1999969,1.6999969,1.1000061,3.1999969,2.8000031,3.4000015c0.1999969,0,0.3999939,0,0.6000061,0  c0.8000031,0,1.6000061-0.0999985,2.3999939-0.3000031c0.8000031-0.1999969,1.6000061-0.4000015,2.3000031-0.8000031v2.9000015  c-0.6999969,0.3000031-1.3999939,0.5999985-2.1000061,0.8000031  C184.2382965,70.6001205,183.3382874,70.700119,182.4382935,70.700119z M181.9382935,59.0001183  c-0.6999969,0-1.3999939,0.2999992-1.8999939,0.7999992c-0.5,0.5999985-0.6999969,1.2999992-0.8000031,2.0999985h5.3000031  c0-0.7999992-0.3000031-1.5-0.8000031-2.0999985C183.2382965,59.3001175,182.6382904,59.0001183,181.9382935,59.0001183z"/>
<path class="st0" d="M203.2382965,70.5001221h-3.8000031v-8.0000038c0-0.7999992-0.1000061-1.5-0.5-2.2000008  c-0.3000031-0.5-0.8999939-0.7999992-1.5-0.7999992c-0.8000031-0.0999985-1.6000061,0.2999992-2.1000061,1  c-0.5,1.0999985-0.8000031,2.4000015-0.6999969,3.6000023v6.5h-3.8000031V56.700119h2.8999939l0.5,1.7999992h0.1999969  c0.3999939-0.5999985,0.8999939-1.0999985,1.6000061-1.4000015c0.8000031-0.2999992,1.6000061-0.5,2.3999939-0.5  c2,0,3.6000061,0.7000008,4.1999969,2h0.3000031c0.3000031-0.7000008,0.8999939-1.2000008,1.6000061-1.4000015  c0.8000031-0.2999992,1.6000061-0.5,2.5-0.5c1.3000031-0.0999985,2.6000061,0.4000015,3.6000061,1.2000008  c0.8000031,0.7999992,1.1999969,2,1.1999969,3.9000015v9.0000076h-3.8000031v-8.0000038c0-0.7999992-0.1000061-1.5-0.5-2.2000008  c-0.3000031-0.5-0.8999939-0.7999992-1.5-0.7999992c-0.8000031-0.0999985-1.6000061,0.2999992-2,1  c-0.5,1-0.6999969,2-0.6999969,3.0999985L203.2382965,70.5001221L203.2382965,70.5001221z"/>
<path class="st0" d="M222.9382935,56.4001198c1.5,0,3,0.7000008,3.8999939,1.9000015c1,1.5999985,1.5,3.4000015,1.3999939,5.2999992  c0.1000061,1.9000015-0.3999939,3.7000046-1.3999939,5.3000031c-0.8999939,1.3000031-2.3999939,2-3.8999939,1.9000015  c-1.5,0-3-0.5999985-3.8999939-1.8000031h-0.3000031l-0.6000061,1.5h-2.8999939V51.200119h3.8000031v4.5  c0,0.5999985-0.1000061,1.4000015-0.1999969,2.7000008h0.1999969  C219.9382935,57.1001167,221.3382874,56.3001175,222.9382935,56.4001198z M221.7382965,59.4001198  c-0.8000031-0.0999985-1.5,0.2000008-2,0.7999992c-0.5,0.7999992-0.6999969,1.7999992-0.6999969,2.7999992v0.4000015  c-0.1000061,1.1000023,0.1999969,2.2000008,0.6999969,3.1000023c0.3999939,0.6999969,1.1999969,1,2,0.9000015  c0.8000031,0,1.5-0.4000015,1.8999939-1c0.5-0.9000015,0.6999969-2,0.6999969-3.0000038c0-1-0.1999969-2.0999985-0.6999969-3  C223.2382965,59.8001175,222.5382843,59.4001198,221.7382965,59.4001198z"/>
<path class="st0" d="M234.7382965,70.5001221h-3.8000031V51.200119h3.8000031V70.5001221z"/>
<path class="st0" d="M236.5382843,56.700119h4.1999969l2.5,7.8000031c0.3000031,0.8000031,0.3999939,1.5999985,0.3999939,2.4000015  h0.1000061c0.1000061-0.8000031,0.3000031-1.5999985,0.5-2.4000015l2.5-7.8000031h4.1000061l-5.8000031,15.6000061  c-0.3999939,1.3000031-1.1999969,2.4000015-2.3000031,3.1999969c-1,0.6999969-2.3000031,1.0999985-3.6000061,1.0999985  c-0.6000061,0-1.3000031-0.0999985-1.8999939-0.1999969v-3c0.5,0.0999985,0.8999939,0.1999969,1.3999939,0.1999969  c0.6000061,0,1.1999969-0.1999969,1.6999969-0.5999985c0.5-0.5,1-1.1999969,1.1999969-1.9000015l0.3000031-0.6999969  L236.5382843,56.700119z"/>
<path class="st0" d="M67.838295,76.4001236c-14.7000008,12.0999985-36.5,10.0999985-48.5999985-4.5999985  c-5.1000004-6.1999969-7.8999996-14.0000038-7.8999996-22.1000023c0-19,15.3999996-34.5,34.4000015-34.5  c8,0,15.7999992,2.7999983,22,7.8999987c2.4000015-0.6000004,4.8000031-0.8999996,7.1999969-0.8999996  c2.5,0,5.0999985,0.2999992,7.5,1c-3.4999924-4.7000046-7.7999954-8.800004-12.7999954-11.9000034l3-6.8000002l-9.5999985-4.5  l-3,6.6999998c-4.5999985-1.5-9.2999992-2.1999998-14.0999985-2.1999998c-25.0000038,0-45.3000031,20.2000008-45.3000031,45.2000008  c0,15.7000046,8.1000004,30.2000046,21.3999996,38.5l-3,6.6999969l9.6000004,4.5999985l3-6.6999969  c4.5999985,1.5,9.2999992,2.1999969,14.0999985,2.1999969c14.5,0,28.0999985-7,36.5-18.7000046c-2.4000015,0.6999969-5,1-7.5,1  C72.4383011,77.3001251,70.138298,77.0001221,67.838295,76.4001236z"/>
<path class="st0" d="M49.5382996,37.9001198c1.2999992-3,3.2000008-5.7000008,5.5999985-8H26.8382988v39.5000038H55.138298  c-2.2999992-2.3000031-4.2000008-5-5.5999985-8.0000038H34.8382988v-7.5999985h12.5  c-0.2000008-1.4000015-0.2999992-2.7000008-0.2999992-4.0999985c0-1.4000015,0.0999985-2.7000008,0.2999992-4.0999985h-12.5  v-7.6000061C34.8382988,37.9001198,44.5382996,37.9001198,49.5382996,37.9001198z"/>
<path class="st0" d="M71.9383011,53.4001198h9.5999985v7.2999992c-6.1999969,3.5-14.0999985,1.4000015-17.5999985-4.7999992  s-1.4000015-14.0999985,4.8000031-17.5999985c1.9000015-1.0999985,4.1999969-1.7000008,6.4000015-1.7000008  c2.9000015,0,5.6999969,0.9000015,8,2.7000008l5-6.4000015c-9.0999985-7.2000008-22.2000046-5.6000004-29.4000015,3.5  c-2.9000015,3.7000008-4.5,8.2000008-4.5,12.9000015c-0.0999985,11.5999985,9.2000008,21.0000038,20.8000031,21.1000023  c4.8000031,0,9.4000015-1.5,13.0999985-4.5l1.5-1.1999969V45.4001198H71.9383011V53.4001198z"/>
<path class="st0" d="M117.838295,29.8001175v25.7999992c0,3.7999992-3.0999985,6.9000015-6.9000015,6.9000015  s-6.9000015-3.0999985-6.9000015-6.9000015V29.8001175h-8v25.7999992c0,8.2000008,6.6999969,14.9000053,14.9000015,14.9000053  s14.9000015-6.7000046,14.9000015-14.9000053V29.8001175H117.838295z"/>
<g>
	<path class="st0" d="M285.6080322,71.0377197h-26.2773438v-3.9101562l10.5273438-10.5820351   c3.2080078-3.2441406,5.3222656-5.5595703,6.34375-6.9453125c1.0205078-1.3847656,1.7861328-2.734375,2.296875-4.046875   c0.5097656-1.3125,0.765625-2.7246094,0.765625-4.2382812c0-2.1328125-0.6474609-3.8232422-1.9414062-5.0722656   c-1.2949219-1.2480469-3.0898438-1.8730469-5.3867188-1.8730469c-1.6591797,0-3.2314453,0.2734375-4.7167969,0.8203125   c-1.4863281,0.546875-3.140625,1.5410156-4.9628906,2.9804688l-2.40625-3.0898438   c3.6816406-3.0625,7.6923828-4.59375,12.03125-4.59375c3.7548828,0,6.6992188,0.9619141,8.8320312,2.8847656   c2.1328125,1.9238281,3.1992188,4.5078125,3.1992188,7.7519531c0,2.5341797-0.7109375,5.0410156-2.1328125,7.5195312   c-1.421875,2.4794922-4.0839844,5.6152344-7.984375,9.40625l-8.75,8.5585976v0.21875h20.5625V71.0377197z"/>
	<path class="st0" d="M317.8463135,50.9947472c0,6.9091797-1.0898438,12.0683594-3.2675781,15.4765663   c-2.1787109,3.4091797-5.5097656,5.1132812-9.9941406,5.1132812c-4.3027344,0-7.5742188-1.7451172-9.8164062-5.2363281   c-2.2421875-3.4902382-3.3632812-8.6084023-3.3632812-15.3535194c0-6.9628906,1.0839844-12.1308594,3.2539062-15.5039062   c2.1689453-3.3720703,5.4775391-5.0585938,9.9257812-5.0585938c4.3378906,0,7.6328125,1.7597656,9.8847656,5.2773438   C316.7203369,39.2281456,317.8463135,44.3228722,317.8463135,50.9947472z M295.9986572,50.9947472   c0,5.8154297,0.6835938,10.0488281,2.0507812,12.7011719c1.3671875,2.6523476,3.5449219,3.9785194,6.5351562,3.9785194   c3.0253906,0,5.2177734-1.34375,6.5761719-4.0332069c1.3574219-2.6884766,2.0371094-6.9042969,2.0371094-12.6464844   s-0.6796875-9.9482422-2.0371094-12.6191406c-1.3583984-2.6699219-3.5507812-4.0058594-6.5761719-4.0058594   c-2.9902344,0-5.1679688,1.3173828-6.5351562,3.9511719C296.682251,40.9556847,295.9986572,45.180294,295.9986572,50.9947472z"/>
	<path class="st0" d="M349.6470947,71.0377197H323.369751v-3.9101562l10.5273438-10.5820351   c3.2080078-3.2441406,5.3222656-5.5595703,6.34375-6.9453125c1.0205078-1.3847656,1.7861328-2.734375,2.296875-4.046875   c0.5097656-1.3125,0.765625-2.7246094,0.765625-4.2382812c0-2.1328125-0.6474609-3.8232422-1.9414062-5.0722656   c-1.2949219-1.2480469-3.0898438-1.8730469-5.3867188-1.8730469c-1.6591797,0-3.2314453,0.2734375-4.7167969,0.8203125   c-1.4863281,0.546875-3.140625,1.5410156-4.9628906,2.9804688l-2.40625-3.0898438   c3.6816406-3.0625,7.6923828-4.59375,12.03125-4.59375c3.7548828,0,6.6992188,0.9619141,8.8320312,2.8847656   c2.1328125,1.9238281,3.1992188,4.5078125,3.1992188,7.7519531c0,2.5341797-0.7109375,5.0410156-2.1328125,7.5195312   c-1.421875,2.4794922-4.0839844,5.6152344-7.984375,9.40625l-8.75,8.5585976v0.21875h20.5625V71.0377197z"/>
	<path class="st0" d="M383.5533447,61.8502159h-5.9335938v9.1875038h-4.3476562v-9.1875038h-19.4414062v-3.9648438   l18.9765625-27.0429688h4.8125v26.8789062h5.9335938V61.8502159z M373.2720947,57.7213097V44.4322472   c0-2.6064453,0.0908203-5.5507812,0.2734375-8.8320312h-0.21875c-0.875,1.75-1.6953125,3.1992188-2.4609375,4.3476562   L358.369751,57.7213097H373.2720947z"/>
</g>
</svg>